<?xml version="1.0" encoding="UTF-8" standalone="no"?>
<!DOCTYPE svg PUBLIC "-//W3C//DTD SVG 1.1//EN" "http://www.w3.org/Graphics/SVG/1.1/DTD/svg11.dtd">
<svg xmlns="http://www.w3.org/2000/svg" version="1.1" viewBox="0.00 0.00 512.00 512.00">
<g stroke-width="2.00" fill="none" stroke-linecap="butt">
<path stroke="#5968b9" vector-effect="non-scaling-stroke" d="
  M 505.96 257.90
  L 498.35 251.18"
/>
<path stroke="#5461ab" vector-effect="non-scaling-stroke" d="
  M 498.35 251.18
  Q 466.76 219.70 406.00 158.62
  Q 405.55 158.17 405.28 158.42"
/>
<path stroke="#aeb5e0" vector-effect="non-scaling-stroke" d="
  M 405.28 158.42
  Q 404.45 157.38 404.13 157.15
  C 377.01 137.73 345.09 125.66 311.64 124.09
  A 1.15 1.10 23.8 0 0 310.82 124.39
  L 306.66 128.28
  Q 306.22 128.69 306.74 128.99
  L 307.20 129.26"
/>
<path stroke="#4f5b9d" vector-effect="non-scaling-stroke" d="
  M 307.20 129.26
  Q 306.94 129.40 306.98 129.71
  Q 307.01 129.91 307.22 130.10
  Q 314.49 136.92 321.72 145.12"
/>
<path stroke="#aeb5e0" vector-effect="non-scaling-stroke" d="
  M 321.72 145.12
  Q 314.49 143.60 308.51 142.44
  Q 262.58 133.59 216.71 140.23"
/>
<path stroke="#4f5b9d" vector-effect="non-scaling-stroke" d="
  M 216.71 140.23
  L 205.82 128.98"
/>
<path stroke="#aeb5e0" vector-effect="non-scaling-stroke" d="
  M 205.82 128.98
  L 201.19 124.45
  Q 200.82 124.09 200.32 124.11
  C 167.59 125.56 136.06 137.38 109.34 156.11
  Q 107.44 157.44 106.31 159.51
  C 77.34 212.50 60.51 273.31 58.00 332.99
  Q 57.87 336.15 58.04 341.52
  Q 58.06 342.02 58.42 342.37
  L 70.27 353.80"
/>
<path stroke="#4f5b9d" vector-effect="non-scaling-stroke" d="
  M 70.27 353.80
  Q 69.95 353.60 69.88 353.98
  Q 69.83 354.27 70.04 354.49
  L 127.99 412.31"
/>
<path stroke="#5461ab" vector-effect="non-scaling-stroke" d="
  M 127.99 412.31
  L 218.43 502.31
  Q 218.69 502.57 218.56 502.91
  Q 218.51 503.04 218.43 503.18"
/>
<path stroke="#a6abcb" vector-effect="non-scaling-stroke" d="
  M 405.28 158.42
  Q 441.01 225.12 451.15 298.72"
/>
<path stroke="#abb2d9" vector-effect="non-scaling-stroke" d="
  M 451.15 298.72
  Q 453.99 320.66 454.04 341.41
  Q 454.04 341.91 453.70 342.27
  Q 412.67 385.74 351.94 387.67"
/>
<path stroke="#a6abcb" vector-effect="non-scaling-stroke" d="
  M 351.94 387.67
  L 348.78 387.85
  Q 348.17 387.88 347.79 387.42
  L 327.09 362.23
  Q 326.57 361.59 327.36 361.36
  C 349.58 354.96 370.47 343.84 385.62 326.26
  Q 387.67 323.88 385.00 325.55
  C 349.39 347.90 308.53 361.44 266.00 361.95
  Q 245.19 362.20 237.00 361.73
  C 197.07 359.43 159.56 345.90 125.87 324.87
  A 0.27 0.27 0.0 0 0 125.52 325.27
  C 140.82 343.38 162.07 355.10 184.61 361.29
  A 0.58 0.58 0.0 0 1 184.90 362.22
  L 164.03 387.60
  A 0.81 0.79 21.2 0 1 163.35 387.89
  L 151.67 387.17"
/>
<path stroke="#a0a5bd" vector-effect="non-scaling-stroke" d="
  M 151.67 387.17
  Q 105.04 383.43 70.27 353.80"
/>
<path stroke="#a0a5bd" vector-effect="non-scaling-stroke" d="
  M 205.82 128.98
  C 176.41 137.04 147.30 149.76 123.05 168.46
  A 0.25 0.25 0.0 0 0 123.31 168.89
  Q 167.52 147.47 216.71 140.23"
/>
<path stroke="#a0a5bd" vector-effect="non-scaling-stroke" d="
  M 321.72 145.12
  Q 356.14 153.24 389.00 168.93
  A 0.18 0.18 0.0 0 0 389.19 168.63
  C 365.19 150.09 336.31 137.29 307.20 129.26"
/>
<path stroke="#5968b9" vector-effect="non-scaling-stroke" d="
  M 489.66 344.86
  Q 485.23 347.78 481.86 351.71
  Q 481.51 352.11 480.98 352.11
  L 480.50 352.11
  Q 480.11 352.11 480.11 352.50
  L 480.11 352.96
  A 1.30 1.30 0.0 0 1 479.73 353.88
  L 449.89 383.72
  Q 449.50 384.11 448.95 384.11
  L 448.50 384.11
  Q 448.11 384.11 448.11 384.50
  L 448.11 384.96
  A 1.30 1.30 0.0 0 1 447.73 385.88
  L 417.89 415.72
  Q 417.50 416.11 416.95 416.11
  L 416.50 416.11
  Q 416.11 416.11 416.11 416.50
  L 416.11 416.96
  A 1.30 1.30 0.0 0 1 415.73 417.88
  L 385.89 447.72
  Q 385.50 448.11 384.95 448.11
  L 384.50 448.11
  Q 384.11 448.11 384.11 448.50
  L 384.11 448.96
  A 1.30 1.30 0.0 0 1 383.73 449.88
  L 353.89 479.72
  Q 353.50 480.11 352.95 480.11
  L 352.50 480.11
  Q 352.11 480.11 352.11 480.50
  L 352.11 481.00
  Q 352.11 481.53 351.72 481.91
  Q 348.41 485.14 345.24 488.50
  Q 344.83 488.93 344.26 488.86
  A 0.35 0.35 0.0 0 0 343.89 489.32
  Q 343.99 489.63 344.35 489.99"
/>
<path stroke="#515ea4" vector-effect="non-scaling-stroke" d="
  M 236.78 505.25
  L 261.55 480.15
  A 0.27 0.26 -66.7 0 1 261.74 480.07
  Q 261.93 480.08 262.12 480.09
  Q 262.24 480.10 262.22 479.98
  Q 262.20 479.83 262.16 479.69
  Q 262.10 479.50 262.24 479.36
  L 319.52 422.11
  Q 319.58 422.05 319.58 422.05
  Q 319.70 422.11 319.81 422.17
  A 0.14 0.14 0.0 0 0 320.01 422.08
  Q 320.04 421.92 320.08 421.77
  Q 320.16 421.45 320.39 421.22
  L 351.80 389.77
  Q 352.15 389.41 352.09 388.91
  L 351.94 387.67"
/>
<path stroke="#475188" vector-effect="non-scaling-stroke" d="
  M 127.99 412.31
  L 152.07 388.40
  Q 152.45 388.02 151.98 387.74
  Q 151.45 387.43 151.67 387.17"
/>
<path stroke="#515ea4" vector-effect="non-scaling-stroke" d="
  M 498.35 251.18
  L 480.01 269.46
  Q 479.89 269.58 479.89 269.74
  L 479.90 270.07
  Q 479.90 270.52 479.57 270.83
  Q 476.96 273.30 474.46 275.84
  Q 474.18 276.12 473.86 276.05
  Q 473.43 275.97 473.13 276.28
  L 451.15 298.72"
/>
<path stroke="#a0a5bd" vector-effect="non-scaling-stroke" d="
  M 197.6685 310.3309
  A 35.19 34.54 85.7 0 0 229.4728 272.6502
  A 35.19 34.54 85.7 0 0 192.3915 240.1491
  A 35.19 34.54 85.7 0 0 160.5872 277.8298
  A 35.19 34.54 85.7 0 0 197.6685 310.3309"
/>
<path stroke="#a6abcb" vector-effect="non-scaling-stroke" d="
  M 314.1982 310.3315
  A 35.20 34.55 94.5 0 0 351.4035 277.9508
  A 35.20 34.55 94.5 0 0 319.7218 240.1485
  A 35.20 34.55 94.5 0 0 282.5165 272.5292
  A 35.20 34.55 94.5 0 0 314.1982 310.3315"
/>
</g>
<path fill="#5c6bc0" d="
  M 505.96 257.90
  L 498.35 251.18
  Q 466.76 219.70 406.00 158.62
  Q 405.55 158.17 405.28 158.42
  Q 404.45 157.38 404.13 157.15
  C 377.01 137.73 345.09 125.66 311.64 124.09
  A 1.15 1.10 23.8 0 0 310.82 124.39
  L 306.66 128.28
  Q 306.22 128.69 306.74 128.99
  L 307.20 129.26
  Q 306.94 129.40 306.98 129.71
  Q 307.01 129.91 307.22 130.10
  Q 314.49 136.92 321.72 145.12
  Q 314.49 143.60 308.51 142.44
  Q 262.58 133.59 216.71 140.23
  L 205.82 128.98
  L 201.19 124.45
  Q 200.82 124.09 200.32 124.11
  C 167.59 125.56 136.06 137.38 109.34 156.11
  Q 107.44 157.44 106.31 159.51
  C 77.34 212.50 60.51 273.31 58.00 332.99
  Q 57.87 336.15 58.04 341.52
  Q 58.06 342.02 58.42 342.37
  L 70.27 353.80
  Q 69.95 353.60 69.88 353.98
  Q 69.83 354.27 70.04 354.49
  L 127.99 412.31
  L 218.43 502.31
  Q 218.69 502.57 218.56 502.91
  Q 218.51 503.04 218.43 503.18
  Q 168.32 495.45 127.37 470.40
  C 12.07 399.89 -27.51 255.02 36.85 135.71
  C 53.69 104.49 78.49 76.49 106.58 55.61
  C 170.63 8.00 253.04 -6.22 328.76 16.73
  C 434.68 48.84 506.54 147.37 505.96 257.90
  Z"
/>
<path fill="#ffffff" d="
  M 405.28 158.42
  Q 441.01 225.12 451.15 298.72
  Q 453.99 320.66 454.04 341.41
  Q 454.04 341.91 453.70 342.27
  Q 412.67 385.74 351.94 387.67
  L 348.78 387.85
  Q 348.17 387.88 347.79 387.42
  L 327.09 362.23
  Q 326.57 361.59 327.36 361.36
  C 349.58 354.96 370.47 343.84 385.62 326.26
  Q 387.67 323.88 385.00 325.55
  C 349.39 347.90 308.53 361.44 266.00 361.95
  Q 245.19 362.20 237.00 361.73
  C 197.07 359.43 159.56 345.90 125.87 324.87
  A 0.27 0.27 0.0 0 0 125.52 325.27
  C 140.82 343.38 162.07 355.10 184.61 361.29
  A 0.58 0.58 0.0 0 1 184.90 362.22
  L 164.03 387.60
  A 0.81 0.79 21.2 0 1 163.35 387.89
  L 151.67 387.17
  Q 105.04 383.43 70.27 353.80
  L 58.42 342.37
  Q 58.06 342.02 58.04 341.52
  Q 57.87 336.15 58.00 332.99
  C 60.51 273.31 77.34 212.50 106.31 159.51
  Q 107.44 157.44 109.34 156.11
  C 136.06 137.38 167.59 125.56 200.32 124.11
  Q 200.82 124.09 201.19 124.45
  L 205.82 128.98
  C 176.41 137.04 147.30 149.76 123.05 168.46
  A 0.25 0.25 0.0 0 0 123.31 168.89
  Q 167.52 147.47 216.71 140.23
  Q 262.58 133.59 308.51 142.44
  Q 314.49 143.60 321.72 145.12
  Q 356.14 153.24 389.00 168.93
  A 0.18 0.18 0.0 0 0 389.19 168.63
  C 365.19 150.09 336.31 137.29 307.20 129.26
  L 306.74 128.99
  Q 306.22 128.69 306.66 128.28
  L 310.82 124.39
  A 1.15 1.10 23.8 0 1 311.64 124.09
  C 345.09 125.66 377.01 137.73 404.13 157.15
  Q 404.45 157.38 405.28 158.42
  Z
  M 197.6685 310.3309
  A 35.19 34.54 85.7 0 0 229.4728 272.6502
  A 35.19 34.54 85.7 0 0 192.3915 240.1491
  A 35.19 34.54 85.7 0 0 160.5872 277.8298
  A 35.19 34.54 85.7 0 0 197.6685 310.3309
  Z
  M 314.1982 310.3315
  A 35.20 34.55 94.5 0 0 351.4035 277.9508
  A 35.20 34.55 94.5 0 0 319.7218 240.1485
  A 35.20 34.55 94.5 0 0 282.5165 272.5292
  A 35.20 34.55 94.5 0 0 314.1982 310.3315
  Z"
/>
<path fill="#414a7a" d="
  M 205.82 128.98
  L 216.71 140.23
  Q 167.52 147.47 123.31 168.89
  A 0.25 0.25 0.0 0 1 123.05 168.46
  C 147.30 149.76 176.41 137.04 205.82 128.98
  Z"
/>
<path fill="#414a7a" d="
  M 307.20 129.26
  C 336.31 137.29 365.19 150.09 389.19 168.63
  A 0.18 0.18 0.0 0 1 389.00 168.93
  Q 356.14 153.24 321.72 145.12
  Q 314.49 136.92 307.22 130.10
  Q 307.01 129.91 306.98 129.71
  Q 306.94 129.40 307.20 129.26
  Z"
/>
<path fill="#4c5796" d="
  M 498.35 251.18
  L 480.01 269.46
  Q 479.89 269.58 479.89 269.74
  L 479.90 270.07
  Q 479.90 270.52 479.57 270.83
  Q 476.96 273.30 474.46 275.84
  Q 474.18 276.12 473.86 276.05
  Q 473.43 275.97 473.13 276.28
  L 451.15 298.72
  Q 441.01 225.12 405.28 158.42
  Q 405.55 158.17 406.00 158.62
  Q 466.76 219.70 498.35 251.18
  Z"
/>
<ellipse fill="#414a7a" cx="0.00" cy="0.00" transform="translate(195.03,275.24) rotate(85.7)" rx="35.19" ry="34.54"/>
<ellipse fill="#4c5796" cx="0.00" cy="0.00" transform="translate(316.96,275.24) rotate(94.5)" rx="35.20" ry="34.55"/>
<path fill="#5664b2" d="
  M 498.35 251.18
  L 505.96 257.90
  Q 505.62 303.07 489.66 344.86
  Q 485.23 347.78 481.86 351.71
  Q 481.51 352.11 480.98 352.11
  L 480.50 352.11
  Q 480.11 352.11 480.11 352.50
  L 480.11 352.96
  A 1.30 1.30 0.0 0 1 479.73 353.88
  L 449.89 383.72
  Q 449.50 384.11 448.95 384.11
  L 448.50 384.11
  Q 448.11 384.11 448.11 384.50
  L 448.11 384.96
  A 1.30 1.30 0.0 0 1 447.73 385.88
  L 417.89 415.72
  Q 417.50 416.11 416.95 416.11
  L 416.50 416.11
  Q 416.11 416.11 416.11 416.50
  L 416.11 416.96
  A 1.30 1.30 0.0 0 1 415.73 417.88
  L 385.89 447.72
  Q 385.50 448.11 384.95 448.11
  L 384.50 448.11
  Q 384.11 448.11 384.11 448.50
  L 384.11 448.96
  A 1.30 1.30 0.0 0 1 383.73 449.88
  L 353.89 479.72
  Q 353.50 480.11 352.95 480.11
  L 352.50 480.11
  Q 352.11 480.11 352.11 480.50
  L 352.11 481.00
  Q 352.11 481.53 351.72 481.91
  Q 348.41 485.14 345.24 488.50
  Q 344.83 488.93 344.26 488.86
  A 0.35 0.35 0.0 0 0 343.89 489.32
  Q 343.99 489.63 344.35 489.99
  Q 293.25 509.22 236.78 505.25
  L 261.55 480.15
  A 0.27 0.26 -66.7 0 1 261.74 480.07
  Q 261.93 480.08 262.12 480.09
  Q 262.24 480.10 262.22 479.98
  Q 262.20 479.83 262.16 479.69
  Q 262.10 479.50 262.24 479.36
  L 319.52 422.11
  Q 319.58 422.05 319.58 422.05
  Q 319.70 422.11 319.81 422.17
  A 0.14 0.14 0.0 0 0 320.01 422.08
  Q 320.04 421.92 320.08 421.77
  Q 320.16 421.45 320.39 421.22
  L 351.80 389.77
  Q 352.15 389.41 352.09 388.91
  L 351.94 387.67
  Q 412.67 385.74 453.70 342.27
  Q 454.04 341.91 454.04 341.41
  Q 453.99 320.66 451.15 298.72
  L 473.13 276.28
  Q 473.43 275.97 473.86 276.05
  Q 474.18 276.12 474.46 275.84
  Q 476.96 273.30 479.57 270.83
  Q 479.90 270.52 479.90 270.07
  L 479.89 269.74
  Q 479.89 269.58 480.01 269.46
  L 498.35 251.18
  Z"
/>
<path fill="#4c5796" d="
  M 351.94 387.67
  L 352.09 388.91
  Q 352.15 389.41 351.80 389.77
  L 320.39 421.22
  Q 320.16 421.45 320.08 421.77
  Q 320.04 421.92 320.01 422.08
  A 0.14 0.14 0.0 0 1 319.81 422.17
  Q 319.70 422.11 319.58 422.05
  Q 319.58 422.05 319.52 422.11
  L 262.24 479.36
  Q 262.10 479.50 262.16 479.69
  Q 262.20 479.83 262.22 479.98
  Q 262.24 480.10 262.12 480.09
  Q 261.93 480.08 261.74 480.07
  A 0.27 0.26 -66.7 0 0 261.55 480.15
  L 236.78 505.25
  L 218.43 503.18
  Q 218.51 503.04 218.56 502.91
  Q 218.69 502.57 218.43 502.31
  L 127.99 412.31
  L 152.07 388.40
  Q 152.45 388.02 151.98 387.74
  Q 151.45 387.43 151.67 387.17
  L 163.35 387.89
  A 0.81 0.79 21.2 0 0 164.03 387.60
  L 184.90 362.22
  A 0.58 0.58 0.0 0 0 184.61 361.29
  C 162.07 355.10 140.82 343.38 125.52 325.27
  A 0.27 0.27 0.0 0 1 125.87 324.87
  C 159.56 345.90 197.07 359.43 237.00 361.73
  Q 245.19 362.20 266.00 361.95
  C 308.53 361.44 349.39 347.90 385.00 325.55
  Q 387.67 323.88 385.62 326.26
  C 370.47 343.84 349.58 354.96 327.36 361.36
  Q 326.57 361.59 327.09 362.23
  L 347.79 387.42
  Q 348.17 387.88 348.78 387.85
  L 351.94 387.67
  Z"
/>
<path fill="#5c6bc0" d="
  M 489.66 344.86
  C 464.43 412.54 410.83 463.78 344.35 489.99
  Q 343.99 489.63 343.89 489.32
  A 0.35 0.35 0.0 0 1 344.26 488.86
  Q 344.83 488.93 345.24 488.50
  Q 348.41 485.14 351.72 481.91
  Q 352.11 481.53 352.11 481.00
  L 352.11 480.50
  Q 352.11 480.11 352.50 480.11
  L 352.95 480.11
  Q 353.50 480.11 353.89 479.72
  L 383.73 449.88
  A 1.30 1.30 0.0 0 0 384.11 448.96
  L 384.11 448.50
  Q 384.11 448.11 384.50 448.11
  L 384.95 448.11
  Q 385.50 448.11 385.89 447.72
  L 415.73 417.88
  A 1.30 1.30 0.0 0 0 416.11 416.96
  L 416.11 416.50
  Q 416.11 416.11 416.50 416.11
  L 416.95 416.11
  Q 417.50 416.11 417.89 415.72
  L 447.73 385.88
  A 1.30 1.30 0.0 0 0 448.11 384.96
  L 448.11 384.50
  Q 448.11 384.11 448.50 384.11
  L 448.95 384.11
  Q 449.50 384.11 449.89 383.72
  L 479.73 353.88
  A 1.30 1.30 0.0 0 0 480.11 352.96
  L 480.11 352.50
  Q 480.11 352.11 480.50 352.11
  L 480.98 352.11
  Q 481.51 352.11 481.86 351.71
  Q 485.23 347.78 489.66 344.86
  Z"
/>
<path fill="#414a7a" d="
  M 70.27 353.80
  Q 105.04 383.43 151.67 387.17
  Q 151.45 387.43 151.98 387.74
  Q 152.45 388.02 152.07 388.40
  L 127.99 412.31
  L 70.04 354.49
  Q 69.83 354.27 69.88 353.98
  Q 69.95 353.60 70.27 353.80
  Z"
/>
</svg>
