<?xml version="1.0" encoding="UTF-8" standalone="no"?>
<!DOCTYPE svg PUBLIC "-//W3C//DTD SVG 1.1//EN" "http://www.w3.org/Graphics/SVG/1.1/DTD/svg11.dtd">
<svg xmlns="http://www.w3.org/2000/svg" version="1.1" viewBox="0.00 0.00 512.00 512.00">
<path stroke="#9daccc" stroke-width="2.00" fill="none" stroke-linecap="butt" vector-effect="non-scaling-stroke" d="
  M 274.76 206.74
  Q 274.63 192.86 274.74 179.03
  C 274.81 169.61 274.27 161.69 282.91 158.05
  Q 286.38 156.59 295.24 156.63
  Q 310.56 156.70 325.96 156.57
  A 0.58 0.58 0.0 0 0 326.53 155.99
  L 326.55 100.02
  Q 326.55 99.52 326.05 99.52
  Q 300.52 99.42 275.00 99.44
  C 242.69 99.46 217.81 113.99 208.77 145.69
  Q 205.56 156.94 205.53 168.27
  Q 205.49 187.43 205.47 206.74
  Q 205.47 207.23 204.98 207.23
  L 173.03 207.23
  Q 172.54 207.23 172.54 207.72
  L 172.54 265.52
  Q 172.54 266.01 173.02 266.01
  L 205.00 266.01
  Q 205.49 266.01 205.49 266.50
  L 205.49 433.05
  A 0.32 0.31 90.0 0 0 205.80 433.37
  L 274.10 433.38
  Q 274.72 433.38 274.72 432.76
  L 274.72 266.53
  Q 274.72 266.01 275.23 266.01
  L 319.79 266.01
  Q 320.35 266.01 320.41 265.46
  L 326.34 207.83
  Q 326.41 207.25 325.82 207.25
  L 275.27 207.25
  Q 274.76 207.25 274.76 206.74"
/>
<path fill="#3b5998" d="
  M 251.39 0.00
  L 260.74 0.00
  C 336.91 1.78 408.34 36.64 455.45 95.54
  Q 509.57 163.19 512.00 251.37
  L 512.00 260.74
  C 510.25 335.83 476.30 406.46 418.80 453.55
  Q 350.50 509.48 260.63 512.00
  L 251.26 512.00
  C 176.17 510.25 105.55 476.31 58.45 418.80
  Q 2.52 350.49 0.00 260.64
  L 0.00 251.24
  Q 2.47 163.14 56.55 95.54
  C 103.69 36.61 175.17 1.74 251.39 0.00
  Z
  M 274.76 206.74
  Q 274.63 192.86 274.74 179.03
  C 274.81 169.61 274.27 161.69 282.91 158.05
  Q 286.38 156.59 295.24 156.63
  Q 310.56 156.70 325.96 156.57
  A 0.58 0.58 0.0 0 0 326.53 155.99
  L 326.55 100.02
  Q 326.55 99.52 326.05 99.52
  Q 300.52 99.42 275.00 99.44
  C 242.69 99.46 217.81 113.99 208.77 145.69
  Q 205.56 156.94 205.53 168.27
  Q 205.49 187.43 205.47 206.74
  Q 205.47 207.23 204.98 207.23
  L 173.03 207.23
  Q 172.54 207.23 172.54 207.72
  L 172.54 265.52
  Q 172.54 266.01 173.02 266.01
  L 205.00 266.01
  Q 205.49 266.01 205.49 266.50
  L 205.49 433.05
  A 0.32 0.31 90.0 0 0 205.80 433.37
  L 274.10 433.38
  Q 274.72 433.38 274.72 432.76
  L 274.72 266.53
  Q 274.72 266.01 275.23 266.01
  L 319.79 266.01
  Q 320.35 266.01 320.41 265.46
  L 326.34 207.83
  Q 326.41 207.25 325.82 207.25
  L 275.27 207.25
  Q 274.76 207.25 274.76 206.74
  Z"
/>
<path fill="#ffffff" d="
  M 275.27 207.25
  L 325.82 207.25
  Q 326.41 207.25 326.34 207.83
  L 320.41 265.46
  Q 320.35 266.01 319.79 266.01
  L 275.23 266.01
  Q 274.72 266.01 274.72 266.53
  L 274.72 432.76
  Q 274.72 433.38 274.10 433.38
  L 205.80 433.37
  A 0.32 0.31 90.0 0 1 205.49 433.05
  L 205.49 266.50
  Q 205.49 266.01 205.00 266.01
  L 173.02 266.01
  Q 172.54 266.01 172.54 265.52
  L 172.54 207.72
  Q 172.54 207.23 173.03 207.23
  L 204.98 207.23
  Q 205.47 207.23 205.47 206.74
  Q 205.49 187.43 205.53 168.27
  Q 205.56 156.94 208.77 145.69
  C 217.81 113.99 242.69 99.46 275.00 99.44
  Q 300.52 99.42 326.05 99.52
  Q 326.55 99.52 326.55 100.02
  L 326.53 155.99
  A 0.58 0.58 0.0 0 1 325.96 156.57
  Q 310.56 156.70 295.24 156.63
  Q 286.38 156.59 282.91 158.05
  C 274.27 161.69 274.81 169.61 274.74 179.03
  Q 274.63 192.86 274.76 206.74
  Q 274.76 207.25 275.27 207.25
  Z"
/>
</svg>
