<?xml version="1.0" encoding="UTF-8" standalone="no"?>
<!-- Created with Inkscape (http://www.inkscape.org/) -->

<svg
   width="250mm"
   height="250mm"
   viewBox="0 0 250 250"
   version="1.1"
   id="svg447"
   inkscape:export-filename="C:\Users\HP\Desktop\email.png"
   inkscape:export-xdpi="500"
   inkscape:export-ydpi="500"
   inkscape:version="1.1 (c68e22c387, 2021-05-23)"
   sodipodi:docname="address.svg"
   xmlns:inkscape="http://www.inkscape.org/namespaces/inkscape"
   xmlns:sodipodi="http://sodipodi.sourceforge.net/DTD/sodipodi-0.dtd"
   xmlns="http://www.w3.org/2000/svg"
   xmlns:svg="http://www.w3.org/2000/svg">
  <sodipodi:namedview
     id="namedview449"
     pagecolor="#505050"
     bordercolor="#ffffff"
     borderopacity="1"
     inkscape:pageshadow="0"
     inkscape:pageopacity="0"
     inkscape:pagecheckerboard="1"
     inkscape:document-units="mm"
     showgrid="false"
     width="200mm"
     inkscape:zoom="0.38217593"
     inkscape:cx="348.00727"
     inkscape:cy="553.41005"
     inkscape:window-width="1920"
     inkscape:window-height="1017"
     inkscape:window-x="-8"
     inkscape:window-y="-8"
     inkscape:window-maximized="1"
     inkscape:current-layer="layer1" />
  <defs
     id="defs444" />
  <g
     inkscape:label="Vrstva 1"
     inkscape:groupmode="layer"
     id="layer1">
    <g
       id="g538"
       transform="matrix(0.45546392,0,0,0.45546392,16.063424,4.8260175)">
      <path
         fill="#ffffff"
         d="m 239,1.59 c 54.42,5.3 99.45,48.18 107,102.39 q 2.84,20.37 -2.91,40.56 c -7.2,25.25 -17.92,49.62 -29.77,73 -6.13,12.09 -12.17,24.1 -18.97,35.91 -11.63,20.17 -23.14,40.48 -35.45,60.24 q -15.13,24.26 -30.64,48.27 -0.43,0.66 -1.22,0.52 a 0.42,0.42 0 0 1 -0.28,-0.18 C 189.69,306.12 154.34,248.27 126.91,186.93 119.51,170.38 112.75,152.9 109.24,135.25 103.61,106.9 112.97,75.33 129.2,52.2 151.14,20.93 186.55,1.35 225,1.31 c 4.66,-0.01 9.57,-0.15 14,0.28 z m 51.16,103.14 a 62.89,62.89 0 0 0 -62.89,-62.89 62.89,62.89 0 0 0 -62.89,62.89 62.89,62.89 0 0 0 62.89,62.89 62.89,62.89 0 0 0 62.89,-62.89 z"
         id="path517" />
      <path
         fill="#ffffff"
         d="m 227,404.17 q 4.45,-0.11 7.04,-3.82 33.38,-47.77 63.38,-97.71 c 8.75,-14.58 16.95,-29.53 25.13,-44.57 a 0.61,0.61 0 0 1 0.79,-0.26 q 28.72,12.98 57.27,26.55 7.25,3.45 9.89,12.13 27.6,90.98 55.26,181.95 c 1.86,6.14 3.62,12.1 5.81,18.15 4.33,11.95 -4.43,24.46 -16.76,25.58 q -4.13,0.37 -12.29,-1.85 C 376.89,507.93 331.36,495.18 285.77,482.68 q -2.05,-0.56 -4.01,0.27 -55.7,23.54 -111.51,46.8 -2.15,0.9 -4.5,0.9 -63.45,0.12 -126.91,0.16 -7.54,0 -10.99,-1.44 C 18.8,525.6 14.41,515.15 17.26,505.73 37.49,438.86 58.04,372.07 77.81,305.06 c 3.88,-13.14 13.72,-14.27 25.44,-14.39 q 24.86,-0.26 49.39,-0.28 a 1.24,1.22 74.5 0 1 1.06,0.61 q 33.84,57.97 72.57,112.8 a 0.88,0.87 71.4 0 0 0.73,0.37 z m -52.75,90.01 v -78.2 a 1.22,1.22 0 0 1 0.78,-1.14 l 36.7,-14.34 q 1.39,-0.54 0.55,-1.77 l -11.14,-16.39 a 1.51,1.5 62.6 0 0 -1.79,-0.57 l -24.09,9.19 q -0.99,0.38 -1,-0.68 l -0.01,-47.49 a 4.32,4.31 29.2 0 0 -0.64,-2.26 l -24.42,-40.29 q -0.27,-0.45 -0.79,-0.54 -2.3,-0.39 -4.65,-0.37 -21.5,0.18 -43,-0.19 c -7.04,-0.12 -12.6,1.37 -14.78,8.58 Q 56.42,405.34 27.1,503.03 c -1,3.32 -2.54,7.07 -1.95,10.41 q 0.95,5.37 5.45,7.68 2.64,1.35 8.55,1.35 62.67,0.01 124.24,0.07 a 11.62,11.59 33.4 0 0 4.53,-0.92 Q 224.3,497.78 280.94,474.1 283.5,473.02 287,474 c 46.35,12.99 92.75,25.83 139.2,38.47 q 5.01,1.36 7.33,1.19 c 5.41,-0.38 10.58,-4.63 10.72,-10.3 0.08,-3.27 -2.19,-6.81 -3.14,-9.97 q -29.41,-97.58 -58.99,-195.1 -1.37,-4.52 -4.86,-6.11 -25.19,-11.43 -49.9,-23.27 a 1.04,1.03 -62.9 0 0 -1.35,0.44 l -9.33,17.33 q -0.66,1.23 0.61,1.82 21.38,9.86 42.9,20.07 2.58,1.22 3.26,3.5 9.42,31.12 18.82,61.98 a 0.58,0.58 0 0 1 -0.69,0.73 l -86.99,-21.74 a 1.17,1.12 7.1 0 1 -0.88,-1.08 l -0.14,-24.38 a 0.41,0.38 -76.4 0 0 -0.2,-0.35 q -0.51,-0.27 -0.85,0.26 -17.16,27.21 -34.87,54.06 -0.33,0.49 -0.29,0.75 0.1,0.61 0.68,0.39 l 12.62,-4.77 a 0.77,0.77 0 0 1 1.04,0.73 v 74.57 a 1.89,1.89 0 0 1 -1.17,1.75 l -95.41,39.79 a 0.63,0.63 0 0 1 -0.87,-0.58 z"
         id="path519" />
      <path
         fill="#ffffff"
         d="m 82.06,396.82 22.58,-74.92 a 0.8,0.8 0 0 1 0.76,-0.57 l 46.3,-0.07 a 0.8,0.8 0 0 1 0.8,0.8 l -0.01,73.7 a 0.8,0.8 0 0 1 -0.78,0.8 l -68.87,1.29 a 0.8,0.8 0 0 1 -0.78,-1.03 z"
         id="path521" />
      <path
         fill="#ffffff"
         d="M 415.61,487.12 293.82,453.58 A 0.6,0.6 0 0 1 293.38,453 l 0.03,-76.8 a 0.6,0.6 0 0 1 0.74,-0.59 l 95.71,23.75 a 0.6,0.6 0 0 1 0.43,0.41 l 26.06,86.6 a 0.6,0.6 0 0 1 -0.74,0.75 z"
         id="path523" />
      <path
         fill="#ffffff"
         d="m 50.82,499.91 23.93,-79.55 a 0.66,0.66 0 0 1 0.62,-0.47 l 76.46,-1.05 a 0.66,0.66 0 0 1 0.67,0.66 v 80.51 a 0.66,0.66 0 0 1 -0.66,0.66 l -100.39,0.09 a 0.66,0.66 0 0 1 -0.63,-0.85 z"
         id="path525" />
    </g>
  </g>
</svg>
