<?xml version="1.0" encoding="UTF-8" standalone="no"?>
<!DOCTYPE svg PUBLIC "-//W3C//DTD SVG 1.1//EN" "http://www.w3.org/Graphics/SVG/1.1/DTD/svg11.dtd">
<svg xmlns="http://www.w3.org/2000/svg" version="1.1" viewBox="0.00 0.00 360.00 360.00">
<path fill="#ffffff" d="
  M 131.72 189.50
  Q 132.27 189.43 132.27 188.88
  Q 132.49 134.77 132.16 80.75
  Q 132.09 69.65 132.27 58.56
  C 132.38 51.82 133.84 46.04 141.50 46.03
  Q 176.53 45.99 211.57 46.04
  C 218.83 46.05 224.60 45.18 227.18 51.66
  Q 228.08 53.91 228.06 58.94
  Q 227.81 115.86 227.80 172.75
  Q 227.80 180.72 228.07 188.42
  A 1.06 1.06 0.0 0 0 229.13 189.45
  Q 257.75 189.44 286.50 189.62
  Q 295.90 189.68 296.71 198.26
  Q 297.05 201.86 293.58 205.33
  Q 241.56 257.39 189.60 309.51
  C 182.62 316.51 178.38 317.14 171.40 310.14
  Q 118.99 257.65 66.59 205.15
  Q 63.94 202.49 63.89 198.77
  C 63.81 192.02 69.06 189.29 75.04 189.30
  Q 101.27 189.36 127.50 189.72
  Q 129.71 189.75 131.72 189.50
  Z"
/>
</svg>
