<?xml version="1.0" encoding="UTF-8" standalone="no"?>
<svg
   version="1.1"
   viewBox="0.00 0.00 512.00 512.00"
   id="svg8470"
   sodipodi:docname="connection.svg"
   inkscape:version="1.1 (c68e22c387, 2021-05-23)"
   xmlns:inkscape="http://www.inkscape.org/namespaces/inkscape"
   xmlns:sodipodi="http://sodipodi.sourceforge.net/DTD/sodipodi-0.dtd"
   xmlns="http://www.w3.org/2000/svg"
   xmlns:svg="http://www.w3.org/2000/svg">
  <defs
     id="defs8474" />
  <sodipodi:namedview
     id="namedview8472"
     pagecolor="#505050"
     bordercolor="#ffffff"
     borderopacity="1"
     inkscape:pageshadow="0"
     inkscape:pageopacity="0"
     inkscape:pagecheckerboard="1"
     showgrid="false"
     inkscape:zoom="1.1849563"
     inkscape:cx="83.969342"
     inkscape:cy="246.84455"
     inkscape:window-width="1920"
     inkscape:window-height="1017"
     inkscape:window-x="-8"
     inkscape:window-y="-8"
     inkscape:window-maximized="1"
     inkscape:current-layer="g8116" />
  <g
     stroke-width="2.00"
     fill="none"
     stroke-linecap="butt"
     id="g8116"
     style="fill:#ffffff;fill-opacity:1" />
  <path
     fill="#b0b9c2"
     d="   M 275.18 44.02   L 279.27 44.27   L 292.31 45.54   L 298.10 46.54   L 304.58 47.83   Q 305.15 47.95 304.96 48.50   L 303.24 53.60   L 301.59 60.30   L 301.32 61.81   Q 301.22 62.34 300.68 62.27   L 299.20 62.08   L 295.15 61.32   L 282.71 59.77   L 277.27 59.31   L 263.26 59.04   L 256.37 59.12   L 241.36 60.65   Q 236.92 60.75 235.91 61.58   L 226.07 63.24   Q 225.47 63.34 225.51 62.74   L 225.71 59.29   L 225.46 52.59   L 225.00 48.73   Q 224.94 48.18 225.48 48.06   L 231.63 46.77   L 239.54 45.51   L 254.09 43.84   Q 258.55 44.30 259.40 43.83   L 275.18 44.02   Z"
     id="path8176"
     style="fill:#b0b9c2;fill-opacity:1" />
  <path
     fill="#b0b9c2"
     d="   M 301.14 77.00   L 301.86 79.59   L 303.43 86.18   Q 303.56 86.72 303.03 86.90   L 289.60 91.44   L 280.96 94.48   L 257.21 103.87   L 250.31 106.80   Q 249.73 107.05 250.18 107.49   L 252.67 109.94   L 260.27 117.42   L 262.73 119.90   L 270.14 127.46   L 272.59 129.95   L 279.94 137.61   L 282.35 140.19   L 289.59 147.98   L 292.05 150.67   L 299.05 158.37   L 301.40 160.96   L 304.30 164.25   Q 304.64 164.64 305.16 164.59   L 314.46 163.74   L 320.38 163.25   L 335.83 161.86   L 343.06 161.65   L 357.17 160.68   L 363.27 160.59   L 377.84 159.97   L 383.29 159.96   L 398.15 159.79   L 404.60 159.99   L 411.76 160.17   Q 412.36 160.19 412.16 160.76   L 410.62 165.23   L 409.50 169.41   Q 409.35 169.95 408.80 169.96   L 406.77 170.03   L 391.07 170.00   L 387.43 170.09   L 371.72 170.52   L 365.92 170.61   L 350.72 171.43   L 345.31 171.81   L 329.16 172.87   L 322.98 173.29   L 313.50 174.07   A 0.30 0.29 66.5 0 0 313.31 174.56   L 317.51 179.37   L 320.09 182.40   L 326.89 190.42   L 328.99 192.92   L 336.06 201.45   L 338.16 204.03   L 344.66 212.04   L 347.23 215.29   L 353.85 223.62   L 356.14 226.54   L 362.61 234.84   L 364.74 237.66   L 371.27 246.30   L 373.02 248.62   L 376.04 252.70   Q 376.26 253.01 376.58 252.79   Q 402.83 234.44 422.20 208.93   Q 422.52 208.51 422.93 208.83   L 426.45 211.55   L 429.02 213.23   Q 429.75 213.58 430.20 214.07   Q 430.56 214.46 430.24 214.88   Q 410.04 241.54 382.69 260.80   Q 382.26 261.11 382.57 261.54   L 388.24 269.29   L 390.25 272.16   L 396.57 281.09   L 398.57 283.97   L 404.83 292.97   L 406.71 295.67   L 409.66 300.06   A 0.26 0.25 61.2 0 1 409.56 300.43   L 401.18 304.38   Q 400.72 304.59 400.40 304.20   L 400.09 303.82   L 397.86 300.52   L 391.84 291.79   L 389.63 288.69   L 383.66 280.24   L 380.97 276.43   L 374.01 266.86   L 360.64 274.85   Q 348.62 281.78 335.46 287.02   L 334.19 283.53   L 332.30 278.24   Q 332.12 277.72 332.62 277.47   L 349.24 269.44   Q 359.21 264.57 367.45 258.95   Q 367.92 258.62 367.58 258.17   L 364.16 253.55   L 357.62 244.93   L 355.45 242.11   L 348.95 233.69   L 346.77 230.88   L 340.84 223.34   L 337.94 219.71   L 331.18 211.34   L 328.99 208.67   L 322.84 201.24   L 319.80 197.64   L 312.97 189.57   L 310.69 186.88   L 303.69 178.82   L 301.28 176.18   Q 301.18 175.78 300.83 175.50   Q 300.57 175.28 300.11 175.31   Q 291.96 175.74 285.35 177.09   Q 282.09 176.69 279.47 177.43   L 262.97 179.49   L 256.60 179.93   L 238.91 182.05   L 233.74 182.68   L 216.29 184.99   Q 213.15 185.08 211.84 185.69   L 193.09 188.14   L 188.12 188.86   L 170.40 191.53   L 163.25 192.45   L 150.69 194.35   Q 150.17 194.43 150.06 194.95   L 146.82 210.54   Q 145.96 211.87 145.55 216.39   L 141.52 234.50   Q 140.35 237.48 140.25 241.93   Q 137.60 250.23 135.79 261.17   Q 134.63 264.18 134.55 267.87   Q 133.16 268.33 135.10 270.16   Q 138.41 273.28 141.48 276.19   L 143.98 278.61   L 151.93 286.27   L 154.25 288.56   L 161.91 295.98   L 163.90 297.89   L 172.13 305.86   L 174.39 307.98   L 181.20 314.47   L 174.56 321.58   L 167.37 315.22   L 164.79 312.69   L 157.25 305.42   L 154.62 302.84   L 147.16 295.60   L 144.44 293.05   L 136.90 285.73   L 134.25 283.17   L 131.95 280.99   Q 131.48 280.55 131.35 281.18   L 130.56 285.01   L 129.03 292.45   L 124.76 312.58   L 123.80 316.01   Q 123.66 316.50 123.16 316.43   L 121.67 316.20   L 114.32 315.32   Q 113.78 315.26 113.88 314.72   L 115.00 309.26   L 116.61 301.35   L 120.51 283.74   L 121.99 276.88   L 122.91 272.80   Q 123.03 272.29 122.65 271.92   L 116.79 266.23   L 113.97 263.50   L 106.52 256.33   Q 110.58 253.90 113.76 250.26   Q 114.12 249.84 114.57 250.15   Q 114.78 250.28 114.95 250.53   L 121.01 256.36   L 125.19 260.46   A 0.25 0.25 0.0 0 0 125.61 260.33   L 127.60 250.72   L 131.41 231.75   Q 132.60 230.76 132.96 224.81   L 137.25 206.10   L 138.46 200.71   L 139.44 196.59   A 0.45 0.45 0.0 0 0 138.89 196.05   Q 132.36 197.63 125.33 197.72   Q 126.15 196.16 124.22 192.99   L 122.65 189.21   Q 122.43 188.67 123.01 188.56   L 131.13 187.07   L 136.56 186.28   L 141.22 185.59   Q 141.76 185.51 141.87 184.98   L 142.76 180.81   L 144.21 174.23   L 146.45 163.92   A 0.16 0.16 0.0 0 0 146.20 163.76   L 118.95 182.74   L 117.09 180.38   L 112.80 175.43   Q 112.45 175.01 112.89 174.69   Q 130.43 161.92 148.72 150.23   Q 149.48 149.75 149.81 148.25   Q 151.87 139.15 153.75 130.07   L 155.10 122.61   L 159.19 104.71   L 160.67 98.29   Q 160.80 97.74 161.32 97.96   L 163.44 98.84   L 169.71 100.97   Q 170.22 101.15 170.12 101.67   L 168.89 108.46   Q 167.91 110.10 167.59 114.63   L 163.56 132.38   L 162.17 138.73   L 161.48 141.49   Q 161.31 142.17 161.92 141.82   L 196.84 121.57   L 209.34 115.16   L 231.62 104.26   A 0.26 0.25 -37.3 0 0 231.68 103.84   L 224.99 97.64   L 222.32 95.20   L 214.89 88.56   L 214.52 88.16   Q 214.20 87.81 214.48 87.43   L 219.70 80.28   Q 219.99 79.88 220.45 80.06   Q 220.93 80.24 221.30 80.75   L 229.34 87.93   L 232.03 90.40   L 239.49 97.28   L 241.52 99.19   Q 241.90 99.55 242.37 99.34   L 247.07 97.25   L 271.00 87.35   L 279.56 84.32   L 301.14 77.00   Z   M 220.97 121.11   Q 215.09 122.84 210.84 125.75   Q 192.68 134.85 176.67 144.87   L 158.90 155.57   A 1.18 1.17 81.0 0 0 158.35 156.33   L 156.31 165.82   L 152.56 183.23   Q 152.43 183.83 153.03 183.73   L 155.90 183.24   L 161.32 182.48   L 178.39 179.86   L 184.52 179.07   L 201.73 176.64   L 209.73 175.53   L 224.39 173.42   L 231.08 172.75   L 247.24 170.64   Q 251.39 170.59 252.70 169.94   L 270.72 167.87   L 277.78 167.29   L 291.75 165.89   A 0.24 0.24 0.0 0 0 291.90 165.49   L 285.35 158.30   L 282.60 155.26   L 275.23 147.39   L 272.81 144.80   L 265.51 137.16   L 262.26 133.89   L 255.66 127.09   L 253.06 124.52   L 245.49 117.09   L 242.99 114.64   L 240.25 111.95   Q 239.90 111.61 239.44 111.79   Q 229.01 115.96 220.97 121.11   Z"
     id="path8198"
     style="fill:#b0b9c2;fill-opacity:1" />
  <path
     fill="#b0b9c2"
     d="   M 148.63 88.77   L 151.00 91.04   L 156.51 95.25   Q 156.95 95.58 156.51 95.92   C 140.10 108.83 126.04 123.80 114.80 141.38   Q 110.53 147.05 107.83 154.24   Q 104.36 158.91 101.56 165.98   Q 101.34 166.54 100.79 166.27   L 97.95 164.86   L 94.33 163.24   L 87.97 161.08   Q 87.44 160.90 87.68 160.39   L 91.01 153.06   L 96.75 142.17   Q 115.51 109.37 145.17 85.83   Q 145.61 85.48 145.98 85.89   L 148.63 88.77   Z"
     id="path8204"
     style="fill:#b0b9c2;fill-opacity:1" />
  <path
     fill="#b0b9c2"
     d="   M 400.10 98.31   L 402.40 100.42   L 409.44 107.75   L 411.93 110.56   L 418.69 118.74   L 420.89 121.54   L 427.16 130.36   L 429.09 133.42   L 432.45 138.90   Q 432.76 139.41 432.23 139.67   Q 425.94 142.80 421.00 147.78   Q 420.57 148.21 420.26 147.69   L 418.82 145.31   L 416.37 141.44   L 410.82 133.28   L 408.12 129.61   L 401.24 121.14   L 399.04 118.65   L 391.84 111.03   Q 391.29 110.60 391.09 110.10   Q 390.89 109.62 391.23 109.23   L 399.24 100.02   Q 399.85 99.15 400.10 98.31   Z"
     id="path8216"
     style="fill:#b0b9c2;fill-opacity:1" />
  <path
     fill="#b0b9c2"
     d="   M 458.85 218.71   L 459.39 222.95   L 459.94 237.53   L 459.81 241.34   L 458.80 257.95   L 458.32 264.01   L 454.97 281.49   L 453.30 287.98   L 449.14 301.42   Q 448.98 301.94 448.46 301.75   L 442.74 299.68   L 438.22 298.48   L 435.23 297.89   Q 434.65 297.78 434.82 297.22   L 438.31 285.76   L 440.01 277.64   Q 442.56 269.74 443.37 259.76   Q 444.11 257.56 443.80 254.04   Q 444.94 247.98 444.70 239.98   L 444.60 233.07   L 443.87 220.06   L 443.88 219.41   Q 443.89 218.87 444.42 218.91   L 445.08 218.97   Q 451.66 219.76 458.85 218.71   Z"
     id="path8314"
     style="fill:#b0b9c2;fill-opacity:1" />
  <path
     fill="#b0b9c2"
     d="m 267.39,232.71 11.66,1.9 3.68,1.21 10.31,4.99 2.4,2.02 q 3.78,3.22 6.96,7.89 l 1.84,3.22 q 2.11,4.74 3.1,11.24 l 0.53,5.43 -0.54,14.58 -0.3,5.11 q -0.04,0.6 0.55,0.5 l 1.76,-0.3 q 6.35,-0.43 6.71,7.06 l 0.01,4.31 q -0.58,5.46 -2.21,12.06 c -1.32,5.33 -3.81,9.26 -10.16,7.73 q -0.57,-0.13 -0.73,0.42 -1.97,6.54 -5.49,12.78 -4.33,7.53 -10.33,13.82 c -0.98,1.03 -0.94,1.85 -0.58,3.13 l -0.09,13.12 -0.04,5.31 q 0,0.54 0.51,0.66 0.88,0.2 1.88,-0.01 l 14.09,-0.21 5.71,0.23 13.48,0.56 4.67,1.12 10.72,3.51 3.36,1.56 9.28,5.81 2.72,2.2 7.51,7.37 2.31,2.88 5.8,9.19 1.49,2.98 3.97,11.51 0.74,3.91 0.88,13.36 0.17,5.71 0.17,14.95 q -0.49,0.92 -0.37,3.64 0.02,0.55 -0.48,0.77 l -10.09,4.52 -22.07,7.91 q -5.21,1.12 -6.64,2.26 l -19.38,4.24 -6.1,1.08 -17.23,2.52 q -4.67,-0.06 -5.41,0.58 l -15.76,0.83 -5.08,0.2 -14.8,-0.23 -5.98,-0.24 -12.94,-0.87 -5.85,-0.7 -11.87,-1.59 -4.21,-0.7 -12.37,-2.48 -4.17,-0.98 -11.69,-3.1 -3.92,-1.12 -11.28,-3.78 -3.71,-1.35 -10.66,-4.39 -3.97,-1.83 -1.41,-0.75 q -0.46,-0.25 -0.46,-0.76 l -0.02,-9.33 -0.04,-5.19 0.01,-15.92 0.4,-4.13 q 1.31,-10.46 5.92,-20.12 10.03,-20.01 30.3,-29.76 8.71,-3.94 18.05,-5.3 l 4.96,-0.6 15.64,0.01 6.17,0.07 7.1,0.01 q 0.54,0 0.53,-0.54 l -0.09,-8.36 0.05,-5.02 q 0.17,-3.52 0.09,-7.47 c -0.05,-2.46 -1.33,-3.58 -2.9,-5.28 l -1.95,-2.93 -5.1,-9.58 -1.54,-3.6 -1.69,-6.2 q -0.14,-0.53 -0.67,-0.4 -3.69,0.86 -6.83,-0.51 l -2.02,-1.48 q -3.16,-4.04 -4.6,-9.56 l -1.29,-4.91 q -1.39,-5.32 -0.87,-9.52 0.59,-4.81 6.33,-4.95 0.52,-0.01 0.52,-0.54 l -0.05,-4.02 -0.03,-6.73 1.15,-15.36 1.39,-6.31 q 3.33,-11.08 15.2,-15.95 4.6,-0.16 6.72,-1.14 l 11.04,-0.83 q 0.5,-0.04 0.8,-0.43 4.23,-5.47 11.04,-6.33 z"
     id="path8324"
     style="fill:#b0b9c2;fill-opacity:1" />
  <path
     fill="#b0b9c2"
     d="   M 88.84 268.08   L 89.69 272.63   L 92.50 284.79   L 93.53 288.53   L 97.40 300.22   L 98.68 303.62   L 103.35 314.48   Q 103.77 315.02 103.91 315.84   Q 104.00 316.32 103.53 316.47   L 97.39 318.45   L 90.89 321.81   Q 90.38 322.07 90.13 321.55   L 87.65 316.28   L 85.80 312.07   L 81.59 300.92   L 80.33 297.17   L 77.24 286.25   L 75.99 281.73   L 73.85 269.87   L 73.64 267.99   Q 73.57 267.38 74.18 267.36   L 76.37 267.30   L 87.82 265.65   Q 88.35 265.57 88.45 266.10   L 88.84 268.08   Z"
     id="path8352"
     style="fill:#b0b9c2;fill-opacity:1" />
  <circle
     style="fill:#b0b9c2;stroke-width:22.387;stroke-linejoin:round;paint-order:markers fill stroke;fill-opacity:1"
     id="path8534"
     cx="353.56644"
     cy="71.011658"
     r="39.177155" />
  <circle
     style="fill:#b0b9c2;stroke-width:15.9082;stroke-linejoin:round;paint-order:markers fill stroke;fill-opacity:1"
     id="path8534-9"
     cx="450.53607"
     cy="179.61772"
     r="27.839161" />
  <circle
     style="fill:#b0b9c2;stroke-width:21.8756;stroke-linejoin:round;paint-order:markers fill stroke;fill-opacity:1"
     id="path8534-9-2"
     cx="423.98135"
     cy="349.98602"
     r="38.282051" />
  <circle
     style="fill:#b0b9c2;stroke-width:17.9542;stroke-linejoin:round;paint-order:markers fill stroke;fill-opacity:1"
     id="path8534-9-6"
     cx="184.39159"
     cy="63.254082"
     r="31.41958" />
  <circle
     style="fill:#b0b9c2;stroke-width:23.0691;stroke-linejoin:round;paint-order:markers fill stroke;fill-opacity:1"
     id="path8534-9-7"
     cx="73.398598"
     cy="214.22845"
     r="40.370632" />
  <circle
     style="fill:#b0b9c2;stroke-width:15.9082;stroke-linejoin:round;paint-order:markers fill stroke;fill-opacity:1"
     id="path8534-9-70"
     cx="109.79952"
     cy="354.46152"
     r="27.839161" />
</svg>
