<?xml version="1.0" encoding="UTF-8" standalone="no"?>
<svg
   version="1.1"
   viewBox="0.00 0.00 1608.00 1064.00"
   id="svg55"
   sodipodi:docname="email.svg"
   inkscape:version="1.1 (c68e22c387, 2021-05-23)"
   xmlns:inkscape="http://www.inkscape.org/namespaces/inkscape"
   xmlns:sodipodi="http://sodipodi.sourceforge.net/DTD/sodipodi-0.dtd"
   xmlns="http://www.w3.org/2000/svg"
   xmlns:svg="http://www.w3.org/2000/svg">
  <defs
     id="defs59" />
  <sodipodi:namedview
     id="namedview57"
     pagecolor="#505050"
     bordercolor="#ffffff"
     borderopacity="1"
     inkscape:pageshadow="0"
     inkscape:pageopacity="0"
     inkscape:pagecheckerboard="1"
     showgrid="false"
     inkscape:zoom="0.55491933"
     inkscape:cx="512.68714"
     inkscape:cy="476.64586"
     inkscape:window-width="1920"
     inkscape:window-height="1017"
     inkscape:window-x="-8"
     inkscape:window-y="-8"
     inkscape:window-maximized="1"
     inkscape:current-layer="svg55" />
  <g
     id="g442">
    <path
       fill="#ffffff"
       d="   M 1367.87 24.54   C 1408.82 24.54 1446.57 33.25 1482.34 53.64   A 0.91 0.90 40.1 0 1 1482.47 55.12   Q 1161.52 320.04 840.16 585.32   Q 829.66 593.99 823.94 596.93   C 806.29 606.01 781.55 606.23 763.82 596.81   Q 758.21 593.84 749.17 586.39   C 534.54 409.55 320.18 232.37 105.65 55.28   A 1.04 1.04 0.0 0 1 105.79 53.58   C 141.27 33.09 179.20 24.54 220.26 24.54   Q 794.06 24.54 1367.87 24.54   Z"
       id="path47" />
    <path
       fill="#ffffff"
       d="   M 26.01 177.81   C 26.01 145.51 40.72 114.63 61.14 90.33   A 0.96 0.96 0.0 0 1 62.48 90.21   L 594.75 529.46   A 0.65 0.65 0.0 0 1 594.75 530.46   L 62.82 969.57   A 1.20 1.19 49.7 0 1 61.15 969.43   C 42.92 948.62 30.26 922.38 26.88 894.72   Q 26.00 887.57 26.00 874.75   Q 26.01 526.28 26.01 177.81   Z"
       id="path49" />
    <path
       fill="#ffffff"
       d="   M 1526.21 90.09   Q 1526.42 90.16 1526.61 90.38   Q 1548.66 115.28 1557.48 146.74   Q 1561.70 161.79 1561.71 178.50   Q 1561.88 526.87 1561.89 875.24   Q 1561.89 887.99 1561.02 895.22   C 1557.69 922.86 1545.30 947.95 1526.98 969.48   A 1.31 1.31 0.0 0 1 1525.14 969.64   L 993.43 530.82   Q 992.47 530.03 993.44 529.23   L 1525.22 90.26   Q 1525.66 89.90 1526.21 90.09   Z"
       id="path51" />
    <path
       fill="#ffffff"
       d="   M 752.05 647.37   C 793.61 660.34 842.52 653.67 876.77 625.51   Q 910.58 597.71 944.38 569.90   Q 946.76 567.94 948.67 565.93   A 1.31 1.30 41.7 0 1 950.45 565.83   L 1482.65 1005.10   A 0.63 0.62 49.6 0 1 1482.57 1006.12   C 1461.25 1018.64 1437.77 1027.39 1413.30 1031.47   C 1409.70 1032.07 1406.00 1032.90 1402.55 1033.33   Q 1385.85 1035.40 1373.25 1035.40   Q 798.13 1035.42 223.00 1035.40   Q 209.44 1035.40 203.01 1035.01   C 169.09 1032.98 135.18 1023.66 105.78 1006.35   A 1.04 1.04 0.0 0 1 105.65 1004.65   L 637.29 565.78   A 1.13 1.12 -44.8 0 1 638.72 565.78   Q 675.66 596.27 712.57 626.68   Q 728.89 640.14 752.05 647.37   Z"
       id="path53" />
  </g>
</svg>
