<?xml version="1.0" encoding="UTF-8" standalone="no"?>
<svg
   version="1.1"
   viewBox="0.00 0.00 512.00 512.00"
   id="svg147"
   sodipodi:docname="phoneBall.svg"
   inkscape:version="1.1 (c68e22c387, 2021-05-23)"
   xmlns:inkscape="http://www.inkscape.org/namespaces/inkscape"
   xmlns:sodipodi="http://sodipodi.sourceforge.net/DTD/sodipodi-0.dtd"
   xmlns="http://www.w3.org/2000/svg"
   xmlns:svg="http://www.w3.org/2000/svg">
  <defs
     id="defs151" />
  <sodipodi:namedview
     id="namedview149"
     pagecolor="#505050"
     bordercolor="#161b22"
     borderopacity="1"
     inkscape:pageshadow="0"
     inkscape:pageopacity="0"
     inkscape:pagecheckerboard="1"
     showgrid="false"
     inkscape:zoom="0.40771484"
     inkscape:cx="-246.49581"
     inkscape:cy="177.82036"
     inkscape:window-width="1920"
     inkscape:window-height="1017"
     inkscape:window-x="-8"
     inkscape:window-y="-8"
     inkscape:window-maximized="1"
     inkscape:current-layer="svg147" />
  <path
     fill="#006400"
     d="m 214.39143,126.64286 c 1.79542,7.66534 -2.1719,13.49021 -7.74476,18.23571 -10.6645,9.08381 -22.60068,15.82823 -34.65591,22.8397 -7.68388,4.4683 -24.02322,13.7398 -24.7697,23.43254 -0.34339,4.41245 1.91014,11.51917 3.94369,16.56685 q 4.51761,11.20922 9.02242,22.42795 31.65235,78.73082 98.09396,131.55617 10.13896,8.06481 20.25402,16.13749 c 6.2233,4.97114 14.41631,9.40162 22.22935,4.90684 10.09832,-5.78587 18.97815,-14.0399 27.34558,-22.06212 7.93854,-7.58452 24.42833,-23.6651 35.84448,-23.95093 11.00687,-0.28939 24.46445,16.07538 32.64516,22.51931 q 27.53867,21.70922 55.58535,42.75332 4.70704,3.51788 8.65532,7.85742 c 5.49687,6.03665 2.0679,16.77971 -0.14105,23.64953 q -5.23627,16.20336 -13.63446,30.99537 c -6.10343,10.7357 -23.07889,19.07085 -34.68398,24.11071 -30.37323,13.17896 -62.83083,16.7144 -94.2978,5.19639 -18.67789,-6.83086 -37.29496,-17.93368 -55.50627,-27.5421 q -39.7391,-20.96973 -71.73962,-52.49094 C 157.99472,381.40796 127.79225,342.2505 103.36287,301.62184 84.996618,271.06416 70.647953,239.04968 63.079551,204.06169 Q 55.77935,170.34289 53.512079,158.54334 C 50.834022,144.58832 49.425821,128.8167 50.876139,114.9696 54.185825,83.498849 70.577853,55.961484 92.549649,33.74437 104.16605,21.988765 115.12398,17.39992 131.54567,15.598027 141.5925,14.484001 157.57,12.99232 167.0561,16.452219 c 5.00307,1.819547 9.06451,12.107595 10.75406,16.785728 q 11.60858,32.065773 24.02622,63.818224 c 3.84368,9.834659 10.11393,19.196079 12.55489,29.586689 z"
     id="path685"
     style="stroke-width:1.12636" />
</svg>
