<?xml version="1.0" encoding="UTF-8" standalone="no"?>
<!-- Created with Inkscape (http://www.inkscape.org/) -->

<svg
   width="250mm"
   height="250mm"
   viewBox="0 0 250 250"
   version="1.1"
   id="svg447"
   inkscape:export-filename="C:\Users\HP\Desktop\email.png"
   inkscape:export-xdpi="500"
   inkscape:export-ydpi="500"
   inkscape:version="1.1 (c68e22c387, 2021-05-23)"
   sodipodi:docname="phone.svg"
   xmlns:inkscape="http://www.inkscape.org/namespaces/inkscape"
   xmlns:sodipodi="http://sodipodi.sourceforge.net/DTD/sodipodi-0.dtd"
   xmlns="http://www.w3.org/2000/svg"
   xmlns:svg="http://www.w3.org/2000/svg">
  <sodipodi:namedview
     id="namedview449"
     pagecolor="#505050"
     bordercolor="#ffffff"
     borderopacity="1"
     inkscape:pageshadow="0"
     inkscape:pageopacity="0"
     inkscape:pagecheckerboard="1"
     inkscape:document-units="mm"
     showgrid="false"
     width="200mm"
     inkscape:zoom="0.38217593"
     inkscape:cx="348.00727"
     inkscape:cy="553.41005"
     inkscape:window-width="1920"
     inkscape:window-height="1017"
     inkscape:window-x="-8"
     inkscape:window-y="-8"
     inkscape:window-maximized="1"
     inkscape:current-layer="layer1" />
  <defs
     id="defs444" />
  <g
     inkscape:label="Vrstva 1"
     inkscape:groupmode="layer"
     id="layer1">
    <path
       fill="#ffffff"
       d="m 105.37199,60.983868 c 0.89658,3.827823 -1.08458,6.736564 -3.86749,9.106319 -5.325505,4.536163 -11.286055,7.904118 -17.306047,11.405414 -3.837078,2.231324 -11.996424,6.861217 -12.369195,11.701459 -0.171465,2.203433 0.953869,5.752299 1.969357,8.27295 q 2.255954,5.59753 4.505506,11.1998 15.806164,39.31564 48.984969,65.69491 5.06307,4.02732 10.11421,8.05855 c 3.10771,2.48243 7.19904,4.69487 11.10061,2.45032 5.04279,-2.88927 9.47708,-7.01107 13.65551,-11.01712 3.96425,-3.78746 12.19872,-11.81758 17.89959,-11.96032 5.49647,-0.14451 12.21676,8.02753 16.30194,11.24542 q 13.75192,10.84089 27.75753,21.34964 2.35055,1.75671 4.32219,3.92374 c 2.74496,3.01451 1.03264,8.37925 -0.0704,11.80981 q -2.61482,8.09144 -6.80861,15.4781 c -3.04786,5.36105 -11.52485,9.52336 -17.32007,12.04011 -15.16741,6.58115 -31.37569,8.34663 -47.08928,2.59491 -9.32714,-3.41111 -18.62391,-8.95551 -27.71805,-13.75364 Q 109.58984,220.11263 93.609805,204.37195 C 77.20932,188.20537 62.127193,168.65138 49.927936,148.36274 40.756417,133.10321 33.591157,117.11621 29.811741,99.644339 Q 26.16627,82.806248 25.034056,76.913937 C 23.696722,69.945249 22.993505,62.069412 23.717752,55.15461 25.370494,39.439129 33.556155,25.687862 44.528155,14.593347 50.329024,8.7229702 55.801043,6.4314542 64.001509,5.5316455 c 5.01708,-0.556307 12.995723,-1.3012092 17.732768,0.4265561 2.49838,0.9086249 4.526536,6.0461414 5.370241,8.3822544 q 5.796947,16.012614 11.997917,31.868767 c 1.919405,4.911116 5.050575,9.585906 6.269515,14.774645 z"
       id="path685"
       style="stroke-width:0.562467" />
  </g>
</svg>
