<?xml version="1.0" encoding="UTF-8" standalone="no"?>
<svg
   version="1.1"
   width="2000"
   height="1500"
   viewBox="0 0 2000 1500"
   id="svg1004"
   sodipodi:docname="logo.svg"
   inkscape:version="1.1 (c68e22c387, 2021-05-23)"
   xmlns:inkscape="http://www.inkscape.org/namespaces/inkscape"
   xmlns:sodipodi="http://sodipodi.sourceforge.net/DTD/sodipodi-0.dtd"
   xmlns="http://www.w3.org/2000/svg"
   xmlns:svg="http://www.w3.org/2000/svg">
  <defs
     id="defs1008" />
  <sodipodi:namedview
     id="namedview1006"
     pagecolor="#505050"
     bordercolor="#ffffff"
     borderopacity="1"
     inkscape:pageshadow="0"
     inkscape:pageopacity="0"
     inkscape:pagecheckerboard="1"
     showgrid="false"
     inkscape:zoom="0.19681139"
     inkscape:cx="2898.7144"
     inkscape:cy="1201.6581"
     inkscape:window-width="1920"
     inkscape:window-height="1017"
     inkscape:window-x="-8"
     inkscape:window-y="-8"
     inkscape:window-maximized="1"
     inkscape:current-layer="g1442" />
  <g
     id="g1442">
    <g
       id="g1391">
      <g
         id="g1341">
        <g
           transform="matrix(0.49407114624505927,0,0,0.49407114624505927,506.8023067452861,250.4048582995951)"
           id="g1002">
          <svg
             viewBox="0 0 244 247"
             data-background-color="#102e44"
             preserveAspectRatio="xMidYMid meet"
             height="2024"
             width="2000"
             version="1.1"
             id="svg1000">
            <g
               id="tight-bounds"
               transform="matrix(1,0,0,1,-0.21567999999999188,-0.09999999999999432)">
              <svg
                 viewBox="0 0 244.43135999999998 247.2"
                 height="247.2"
                 width="244.43135999999998"
                 version="1.1"
                 id="svg995">
                <g
                   id="g921">
                  <svg
                     version="1.1"
                     id="svg919" />
                </g>
                <g
                   id="g991">
                  <svg
                     viewBox="0 0 244.43135999999998 247.2"
                     height="247.2"
                     width="244.43135999999998"
                     version="1.1"
                     id="svg989">
                    <g
                       transform="matrix(1,0,0,1,0,81.23196254663611)"
                       id="g985">
                      <svg
                         viewBox="0 0 244.43135999999998 84.73607490672775"
                         height="84.73607490672775"
                         width="244.43135999999998"
                         version="1.1"
                         id="svg983">
                        <g
                           id="g981">
                          <svg
                             viewBox="0 0 245.65351679999995 85.15975528126138"
                             height="84.73607490672775"
                             width="244.43135999999998"
                             version="1.1"
                             id="svg979">
                            <g
                               id="g924">
                              <rect
                                 width="353.04001"
                                 height="2.1416385"
                                 x="-56.757767"
                                 y="37.082466"
                                 fill="#ffffff"
                                 opacity="1"
                                 stroke-width="0"
                                 stroke="transparent"
                                 fill-opacity="1"
                                 class="rect-qz-0"
                                 data-fill-palette-color="secondary"
                                 rx="1.4371461%"
                                 id="qz-0"
                                 data-palette-color="#ffffff" />
                            </g>
                            <g
                               transform="matrix(1,0,0,1,0.6110783999999825,56.47185521748637)"
                               id="g948">
                              <svg
                                 viewBox="0 0 244.43135999999998 28.687900063775007"
                                 height="28.687900063775007"
                                 width="244.43135999999998"
                                 version="1.1"
                                 id="svg946">
                                <g
                                   id="textblocktransform">
                                <svg
                                   viewBox="0 0 244.43135999999998 28.687900063775007"
                                   height="28.687900063775007"
                                   width="244.43135999999998"
                                   id="textblock"
                                   version="1.1">
                                <g
                                   id="g933">
                                <svg
                                   viewBox="0 0 244.43135999999998 16.524564629529472"
                                   height="16.524564629529472"
                                   width="244.43135999999998"
                                   version="1.1"
                                   id="svg931">
                                <g
                                   id="g929"
                                   transform="matrix(1,0,0,1,0,0)">
                                <svg
                                   width="244.43135999999998"
                                   viewBox="1.05 -37 554.6500000000001 37.5"
                                   height="16.524564629529472"
                                   data-palette-color="#ffffff"
                                   version="1.1"
                                   id="svg927">
                                <path
                                   d="m -65.698027,-54.282788 v 0 q 1.437146,0 2.65872,1.034745 1.221574,1.049117 1.221574,2.84555 v 0 q 0,0.503001 -0.215572,1.221574 v 0 l -14.730748,43.1143874 q -0.359286,1.07786 -1.293431,1.65272 -0.934145,0.57486 -1.940147,0.64672 v 0 q -1.006003,0 -2.012005,-0.57486 -1.006002,-0.57486 -1.509003,-1.72458 v 0 l -11.353455,-26.5872074 0.646716,0.287429 -11.209742,26.2997784 q -0.57486,1.14972 -1.53774,1.72458 -0.97726,0.57486 -2.05512,0.57486 v 0 q -0.93415,-0.0719 -1.86829,-0.64672 -0.93415,-0.57486 -1.29343,-1.65272 v 0 l -14.73075,-43.1143874 q -0.21557,-0.718573 -0.21557,-1.221574 v 0 q 0,-1.796433 1.29343,-2.84555 1.29343,-1.034745 2.65872,-1.034745 v 0 q 1.14972,0 2.12697,0.603602 0.96289,0.617972 1.32218,1.767689 v 0 l 12.43131,37.078375 h -1.29343 l 10.922312,-26.730923 q 0.503001,-1.077859 1.408403,-1.724575 0.89103,-0.646716 2.040747,-0.574859 v 0 q 1.149717,-0.07186 2.055119,0.574859 0.891031,0.646716 1.322175,1.724575 v 0 l 10.347452,25.940493 -1.07786,0.57485 12.359457,-36.862795 q 0.359286,-1.149717 1.365288,-1.767689 1.006003,-0.603602 2.15572,-0.603602 z m 26.587203,51.2342664 v 0 q -5.892299,0 -10.318709,-2.48626 -4.412039,-2.4719 -6.826444,-6.8264504 -2.400034,-4.34018 -2.400034,-9.94505 v 0 q 0,-6.323448 2.543748,-10.821715 2.55812,-4.483896 6.68273,-6.898301 4.13898,-2.400034 8.737848,-2.400034 v 0 q 3.449151,0 6.639615,1.394031 3.204836,1.408404 5.647983,3.880295 2.44315,2.486263 3.8803,5.820442 1.43714,3.34855 1.509,7.300702 v 0 q -0.0719,1.43715 -1.14972,2.37129 -1.07786,0.93415 -2.515,0.93415 v 0 h -27.880638 l -1.724575,-6.107875 h 27.018347 l -1.365289,1.293431 v -1.796432 q -0.215572,-2.515006 -1.724576,-4.42641 -1.509003,-1.897033 -3.707837,-2.94615 -2.184462,-1.034745 -4.62761,-1.034745 v 0 q -2.155719,0 -4.167724,0.675459 -2.012004,0.68983 -3.521008,2.198833 -1.509003,1.509004 -2.443148,3.980895 -0.934145,2.486263 -0.934145,6.150984 v 0 q 0,3.95215 1.652718,6.8983 1.652718,2.94616 4.455153,4.55576 2.802435,1.6239804 6.251585,1.6239804 v 0 q 2.586863,0 4.311439,-0.5461204 1.724575,-0.53175 2.874292,-1.32218 1.149717,-0.79043 2.012005,-1.509 v 0 q 1.149716,-0.64672 2.155721,-0.64672 v 0 q 1.29343,0 2.15572,0.89104 0.86228,0.9054 0.86228,2.12697 v 0 q 0,1.5808604 -1.58086,2.8743004 v 0 q -1.94014,1.86829 -5.360551,3.30543 -3.406036,1.43715 -7.142616,1.43715 z M 3.7879832,-42.426332 v 0 q 5.03002,0 8.9390498,2.515005 3.92341,2.515006 6.22285,6.927045 2.29943,4.42641 2.29943,10.17499 v 0 q 0,5.74859 -2.29943,10.20374 -2.29944,4.4551604 -6.17973,6.9989104 -3.8802998,2.55812 -8.7665898,2.55812 v 0 q -2.73058,0 -5.17373,-0.9054 -2.44315,-0.89103 -4.31144,-2.29944 -1.86829,-1.39403 -3.06112,-2.97489 -1.17846,-1.5808604 -1.4658902,-2.9461504 v 0 l 1.9401502,-0.93415 v 6.2515904 q 0,1.50901 -1.04912,2.54375 -1.0347402,1.04912 -2.5437502,1.04912 v 0 q -1.58086,0 -2.58686,-1.00601 -1.006,-1.006 -1.006,-2.58686 v 0 -46.4198244 q 0,-1.58086 1.006,-2.615605 1.006,-1.049117 2.58686,-1.049117 v 0 q 1.50901,0 2.5437502,1.049117 1.04912,1.034745 1.04912,2.615605 v 0 20.191903 l -1.14972,-0.646715 q 0.21557,-1.365289 1.36529,-2.84555 1.14972,-1.465889 2.90304,-2.831178 1.76769,-1.365288 4.02400005,-2.198833 2.27069995,-0.819173 4.71383995,-0.819173 z m -0.79043,6.610872 v 0 q -3.44914995,0 -6.00727,1.724575 -2.54375,1.724575 -3.98089,4.627611 -1.43715,2.917406 -1.43715,6.653982 v 0 q 0,3.73658 1.43715,6.71148 1.43714,2.98926 3.98089,4.71384 2.55812005,1.7245804 6.00727,1.7245804 v 0 q 3.3773,0 5.8923,-1.7245804 2.5150098,-1.72458 3.9808998,-4.74259 1.48026,-3.018 1.48026,-6.68273 v 0 q 0,-3.736576 -1.48026,-6.653982 -1.46589,-2.903036 -3.9808998,-4.627611 -2.515,-1.724575 -5.8923,-1.724575 z M 85.834663,-54.282788 v 0 q 1.43714,0 2.65872,1.034745 1.22157,1.049117 1.22157,2.84555 v 0 q 0,0.503001 -0.21557,1.221574 v 0 l -14.73075,43.1143874 q -0.35929,1.07786 -1.29343,1.65272 -0.93415,0.57486 -1.94015,0.64672 v 0 q -1.006,0 -2.012,-0.57486 -1.006,-0.57486 -1.50901,-1.72458 v 0 l -11.35345,-26.5872074 0.64672,0.287429 -11.20974,26.2997784 q -0.57486,1.14972 -1.53775,1.72458 -0.97726,0.57486 -2.05512,0.57486 v 0 q -0.93414,-0.0719 -1.86829,-0.64672 -0.93414,-0.57486 -1.29343,-1.65272 v 0 L 24.612233,-49.180919 q -0.21557,-0.718573 -0.21557,-1.221574 v 0 q 0,-1.796433 1.29343,-2.84555 1.29343,-1.034745 2.65872,-1.034745 v 0 q 1.14972,0 2.12698,0.603602 0.96289,0.617972 1.32217,1.767689 v 0 l 12.43132,37.078375 h -1.29344 l 10.92231,-26.730923 q 0.50301,-1.077859 1.40841,-1.724575 0.89103,-0.646716 2.04075,-0.574859 v 0 q 1.14971,-0.07186 2.05511,0.574859 0.89104,0.646716 1.32218,1.724575 v 0 l 10.34745,25.940493 -1.07786,0.57485 12.35946,-36.862795 q 0.35928,-1.149717 1.36529,-1.767689 1.006,-0.603602 2.15572,-0.603602 z m 17.173887,16.096037 v 30.7549294 q 0,1.58086 -1.006,2.61561 -1.006,1.04912 -2.586857,1.04912 v 0 q -1.50901,0 -2.54375,-1.04912 -1.04912,-1.03475 -1.04912,-2.61561 v 0 -30.7549294 q 0,-1.580861 1.04912,-2.629978 1.03474,-1.034745 2.54375,-1.034745 v 0 q 1.580857,0 2.586857,1.034745 1.006,1.049117 1.006,2.629978 z m -3.664717,-8.407305 v 0 q -2.08386,0 -3.01801,-0.761688 -0.93414,-0.747316 -0.93414,-2.543748 v 0 -1.149717 q 0,-1.796433 1.006,-2.515006 1.006,-0.718573 3.01801,-0.718573 v 0 q 2.155717,0 3.089857,0.747316 0.93415,0.761688 0.93415,2.486263 v 0 1.149717 q 0,1.86829 -0.97726,2.586863 -0.96289,0.718573 -3.118607,0.718573 z m 11.137877,36.9346644 v 0 q -0.64671,-1.0060104 -0.57486,-2.3425504 0.0719,-1.32218 1.50901,-2.25633 v 0 q 1.006,-0.64671 2.1126,-0.54611 1.12098,0.11497 2.12698,1.12097 v 0 q 2.012,2.22758 4.48389,3.52101 2.48627,1.2934404 6.00727,1.2934404 v 0 q 1.43715,-0.0719 2.94615,-0.47426 1.50901,-0.38803 2.58687,-1.4371504 1.07786,-1.03475 1.07786,-3.04675 v 0 q 0,-1.79643 -1.14972,-2.87429 -1.14972,-1.07786 -3.01801,-1.76769 -1.86829,-0.67546 -4.02401,-1.25032 v 0 q -2.29943,-0.64672 -4.64198,-1.43715 -2.32817,-0.79043 -4.19646,-2.055117 -1.86829,-1.250317 -3.06113,-3.262322 -1.17846,-2.012004 -1.17846,-4.958154 v 0 q 0,-3.377293 1.89704,-5.820441 1.9114,-2.443149 4.95815,-3.808438 3.06112,-1.365288 6.65399,-1.365288 v 0 q 2.08386,0 4.38329,0.531744 2.29944,0.546115 4.45516,1.695832 2.15572,1.149717 3.73658,3.018007 v 0 q 0.71857,0.934145 0.81917,2.227576 0.11497,1.293432 -1.17846,2.299434 v 0 q -0.86229,0.718573 -2.08386,0.646716 -1.22158,-0.07186 -2.01201,-0.79043 v 0 q -1.36529,-1.724576 -3.521,-2.701835 -2.15572,-0.962888 -4.8863,-0.962888 v 0 q -1.36529,0 -2.84555,0.388029 -1.46589,0.402401 -2.47189,1.408404 -1.006,1.006002 -1.006,2.946149 v 0 q 0,1.796433 1.17846,2.874292 1.19283,1.07786 3.13297,1.796433 1.94015,0.718573 4.23958,1.293432 v 0 q 2.22758,0.574858 4.41204,1.365288 2.19884,0.790431 3.95216,2.040747 1.76768,1.26469 2.87429,3.23358 1.12097,1.98326 1.12097,5.00127 v 0 q 0,3.52101 -2.05512,5.9929004 -2.04075,2.48627 -5.17372,3.7797 -3.11861,1.29343 -6.56776,1.29343 v 0 q -4.09587,0 -8.16299,-1.48026 -4.05275,-1.46589 -6.85519,-5.13061 z m 53.82112,6.61087 v 0 q -5.8923,0 -10.31871,-2.48626 -4.41203,-2.4719 -6.82644,-6.8264504 -2.40003,-4.34018 -2.40003,-9.94505 v 0 q 0,-6.323448 2.54375,-10.821715 2.54374,-4.483896 6.68272,-6.898301 4.12461,-2.400034 8.73785,-2.400034 v 0 q 3.44915,0 6.63962,1.394031 3.20483,1.408404 5.64798,3.880295 2.44315,2.486263 3.8803,5.820442 1.43714,3.34855 1.509,7.300702 v 0 q -0.0719,1.43715 -1.14972,2.37129 -1.07786,0.93415 -2.515,0.93415 v 0 h -27.88064 l -1.72457,-6.107875 h 27.01834 l -1.36528,1.293431 v -1.796432 q -0.21558,-2.515006 -1.72458,-4.42641 -1.509,-1.897033 -3.70784,-2.94615 -2.18446,-1.034745 -4.62761,-1.034745 v 0 q -2.15572,0 -4.16772,0.675459 -2.01201,0.68983 -3.52101,2.198833 -1.509,1.509004 -2.44315,3.980895 -0.94851,2.486263 -0.94851,6.150984 v 0 q 0,3.95215 1.66709,6.8983 1.65271,2.94616 4.44078,4.55576 2.8168,1.6239804 6.26595,1.6239804 v 0 q 2.58687,0 4.31144,-0.5461204 1.72458,-0.53175 2.8743,-1.32218 1.14971,-0.79043 2.012,-1.509 v 0 q 1.14972,-0.64672 2.15572,-0.64672 v 0 q 1.29343,0 2.15572,0.89104 0.86229,0.9054 0.86229,2.12697 v 0 q 0,1.5808604 -1.58087,2.8743004 v 0 q -1.94014,1.86829 -5.36055,3.30543 -3.40604,1.43715 -7.14262,1.43715 z m 48.48931,-51.0186944 v 0 q 1.43715,0 2.55812,1.049117 1.10661,1.034745 1.10661,2.615606 v 0 42.9706714 q -0.0719,1.58086 -1.17846,2.61561 -1.12098,1.04912 -2.62998,1.04912 v 0 q -1.65272,0 -2.68746,-1.04912 -1.04912,-1.03475 -1.04912,-2.61561 v 0 -42.9706714 q 0,-1.580861 1.07786,-2.615606 1.07786,-1.049117 2.80243,-1.049117 z m 32.40765,0 v 0 q 1.72457,0 2.73058,1.049117 1.006,1.034745 1.006,2.615606 v 0 42.9706714 q 0,1.58086 -1.04912,2.61561 -1.03474,1.04912 -2.75932,1.04912 v 0 q -1.509,0 -2.58686,-1.04912 -1.07786,-1.03475 -1.07786,-2.61561 v 0 -42.9706714 q 0,-1.580861 1.12097,-2.615606 1.10661,-1.049117 2.61561,-1.049117 z m -32.76693,28.311779 0.0718,-6.898302 h 32.76694 l -0.0719,6.898302 z m 83.28261,3.089865 v 0 q 0,5.74858 -2.55812,10.16062 -2.54374,4.4264204 -6.85518,6.9414204 -4.31144,2.51501 -9.70074,2.51501 v 0 q -5.31744,0 -9.67199,-2.51501 -4.34018,-2.515 -6.8983,-6.9414204 -2.54375,-4.41204 -2.54375,-10.16062 v 0 q 0,-5.820443 2.54375,-10.246853 2.55812,-4.412039 6.8983,-6.970159 4.35455,-2.543748 9.67199,-2.543748 v 0 q 5.3893,0 9.70074,2.543748 4.31144,2.55812 6.85518,6.970159 2.55812,4.42641 2.55812,10.246853 z m -7.18573,0 v 0 q 0,-3.952153 -1.58086,-6.86956 -1.58086,-2.903035 -4.28269,-4.598867 -2.68747,-1.681461 -6.06476,-1.681461 v 0 q -3.30543,0 -6.00727,1.681461 -2.68746,1.695832 -4.31144,4.598867 -1.6096,2.917407 -1.6096,6.86956 v 0 q 0,3.80844 1.6096,6.75459 1.62398,2.94615 4.31144,4.59887 2.70184,1.6527204 6.00727,1.6527204 v 0 q 3.37729,0 6.06476,-1.6527204 2.70183,-1.65272 4.28269,-4.59887 1.58086,-2.94615 1.58086,-6.75459 z m 33.91665,-19.545188 v 0 q 5.30307,0 8.17736,2.615605 2.8743,2.629978 3.82281,7.085131 v 0 l -1.14971,-0.359287 0.503,-1.149717 q 0.93414,-1.86829 2.83117,-3.779694 1.89704,-1.897033 4.57013,-3.161721 2.65872,-1.250317 5.67673,-1.250317 v 0 q 4.94378,0 7.68873,2.112604 2.73058,2.126977 3.80844,5.676727 1.07785,3.564123 1.07785,7.947418 v 0 19.0421894 q 0,1.58086 -1.006,2.61561 -1.006,1.04912 -2.58686,1.04912 v 0 q -1.509,0 -2.55812,-1.04912 -1.03475,-1.03475 -1.03475,-2.61561 v 0 -18.9703314 q 0,-2.515006 -0.68983,-4.598868 -0.67545,-2.083862 -2.37129,-3.34855 -1.69583,-1.250317 -4.62761,-1.250317 v 0 q -2.8168,0 -5.00127,1.250317 -2.18446,1.264688 -3.40603,3.34855 -1.23595,2.083862 -1.23595,4.598868 v 0 18.9703314 q 0,1.58086 -0.99163,2.61561 -1.006,1.04912 -2.60123,1.04912 v 0 q -1.56649,0 -2.57249,-1.04912 -1.02038,-1.03475 -1.02038,-2.61561 v 0 -19.0421894 q 0,-2.515005 -0.67546,-4.598867 -0.67546,-2.083862 -2.32817,-3.305436 -1.66709,-1.221574 -4.59887,-1.221574 v 0 q -2.81681,0 -4.97253,1.221574 -2.15572,1.221574 -3.33418,3.305436 -1.17846,2.083862 -1.17846,4.598867 v 0 19.0421894 q 0,1.58086 -1.04911,2.61561 -1.03475,1.04912 -2.54375,1.04912 v 0 q -1.59523,0 -2.58686,-1.04912 -1.00601,-1.03475 -1.00601,-2.61561 v 0 -30.4675004 q 0,-1.580861 1.00601,-2.629978 0.99163,-1.034745 2.58686,-1.034745 v 0 q 1.509,0 2.54375,1.034745 1.04911,1.049117 1.04911,2.629978 v 0 4.239581 l -1.36528,0.79043 q 0.48862,-1.58086 1.65271,-3.233578 1.14972,-1.652719 2.90304,-3.018007 1.76769,-1.365289 3.92341,-2.227577 2.15572,-0.862287 4.67072,-0.862287 z m 64.29792,39.1622384 v 0 q -5.8923,0 -10.30434,-2.48626 -4.42641,-2.4719 -6.82644,-6.8264504 -2.41441,-4.34018 -2.41441,-9.94505 v 0 q 0,-6.323448 2.55812,-10.821715 2.54375,-4.483896 6.68273,-6.898301 4.12461,-2.400034 8.72348,-2.400034 v 0 q 3.44915,0 6.65399,1.394031 3.19046,1.408404 5.63361,3.880295 2.44315,2.486263 3.88029,5.820442 1.43715,3.34855 1.50901,7.300702 v 0 q -0.0719,1.43715 -1.14972,2.37129 -1.07786,0.93415 -2.51501,0.93415 v 0 h -27.88063 l -1.72458,-6.107875 h 27.01835 l -1.36529,1.293431 v -1.796432 q -0.21557,-2.515006 -1.72457,-4.42641 -1.50901,-1.897033 -3.69347,-2.94615 -2.19883,-1.034745 -4.64198,-1.034745 v 0 q -2.15572,0 -4.16773,0.675459 -2.012,0.68983 -3.521,2.198833 -1.50901,1.509004 -2.44315,3.980895 -0.93415,2.486263 -0.93415,6.150984 v 0 q 0,3.95215 1.65272,6.8983 1.65272,2.94616 4.45515,4.55576 2.80244,1.6239804 6.25159,1.6239804 v 0 q 2.58686,0 4.31144,-0.5461204 1.72457,-0.53175 2.87429,-1.32218 1.14972,-0.79043 2.01201,-1.509 v 0 q 1.14971,-0.64672 2.15571,-0.64672 v 0 q 1.29344,0 2.15572,0.89104 0.86229,0.9054 0.86229,2.12697 v 0 q 0,1.5808604 -1.58086,2.8743004 v 0 q -1.94015,1.86829 -5.34618,3.30543 -3.42041,1.43715 -7.15699,1.43715 z m 80.33647,-48.1444024 v 0 q 1.58086,0.790431 1.82517,2.443149 0.25869,1.652718 -0.81917,3.018007 v 0 q -0.79043,1.077859 -2.05512,1.221574 -1.25032,0.143714 -2.47189,-0.503001 v 0 q -2.08386,-1.07786 -4.3833,-1.724576 -2.29943,-0.646715 -4.88629,-0.646715 v 0 q -4.09587,0 -7.37256,1.322174 -3.26232,1.336546 -5.63362,3.808437 -2.37129,2.486263 -3.63598,5.863556 -1.25031,3.377294 -1.25031,7.47316 v 0 q 0,4.52701 1.36529,8.004907 1.36529,3.49226 3.76532,5.8923 2.4144,2.4144 5.67673,3.59286 3.27669,1.19284 7.08513,1.19284 v 0 q 2.44315,0 4.77132,-0.57486 2.34255,-0.57486 4.42641,-1.72458 v 0 q 1.29343,-0.64671 2.54375,-0.47426 1.26469,0.18683 2.05512,1.26469 v 0 q 1.22157,1.50901 0.89103,3.0467504 -0.31617,1.55212 -1.82518,2.34255 v 0 q -1.79643,1.00601 -3.95215,1.72458 -2.15572,0.71857 -4.38329,1.14972 -2.22758,0.43114 -4.52701,0.43114 v 0 q -5.17373,0 -9.7726,-1.72458 -4.59886,-1.72457 -8.19173,-5.03001 -3.59286,-3.3054404 -5.64798,-8.1198804 -2.04075,-4.81444 -2.04075,-10.994167 v 0 q 0,-5.533012 1.89703,-10.246852 1.91141,-4.699468 5.3893,-8.119875 3.49226,-3.406037 8.16299,-5.317441 4.67072,-1.897033 10.20374,-1.897033 v 0 q 3.44915,0 6.71147,0.862288 3.27669,0.862288 6.07913,2.443148 z m 45.12639,28.527352 v 0 q 0,5.74858 -2.55812,10.16062 -2.54375,4.4264204 -6.85519,6.9414204 -4.31144,2.51501 -9.70074,2.51501 v 0 q -5.31744,0 -9.67199,-2.51501 -4.34018,-2.515 -6.8983,-6.9414204 -2.55812,-4.41204 -2.55812,-10.16062 v 0 q 0,-5.820443 2.55812,-10.246853 2.55812,-4.412039 6.8983,-6.970159 4.35455,-2.543748 9.67199,-2.543748 v 0 q 5.3893,0 9.70074,2.543748 4.31144,2.55812 6.85519,6.970159 2.55812,4.42641 2.55812,10.246853 z m -7.18574,0 v 0 q 0,-3.952153 -1.59523,-6.86956 -1.56649,-2.903035 -4.26832,-4.598867 -2.68746,-1.681461 -6.06476,-1.681461 v 0 q -3.31981,0 -6.00727,1.681461 -2.70183,1.695832 -4.31144,4.598867 -1.62397,2.917407 -1.62397,6.86956 v 0 q 0,3.80844 1.62397,6.75459 1.60961,2.94615 4.31144,4.59887 2.68746,1.6527204 6.00727,1.6527204 v 0 q 3.3773,0 6.06476,-1.6527204 2.70183,-1.65272 4.26832,-4.59887 1.59523,-2.94615 1.59523,-6.75459 z m 34.40528,-19.76076 v 0 q 5.10187,0 7.90431,2.112604 2.80243,2.126977 3.92341,5.676728 1.1066,3.564122 1.1066,7.947418 v 0 19.2577604 q 0,1.58086 -1.03475,2.61561 -1.04911,1.04912 -2.55812,1.04912 v 0 q -1.58086,0 -2.58686,-1.04912 -1.006,-1.03475 -1.006,-2.61561 v 0 -19.1859034 q 0,-2.586863 -0.71858,-4.641982 -0.71857,-2.040748 -2.47189,-3.305436 -1.76769,-1.250317 -4.92941,-1.250317 v 0 q -2.94615,0 -5.17372,1.250317 -2.22758,1.264688 -3.4779,3.305436 -1.26469,2.055119 -1.26469,4.641982 v 0 19.1859034 q 0,1.58086 -1.03474,2.61561 -1.04912,1.04912 -2.55812,1.04912 v 0 q -1.58086,0 -2.58686,-1.04912 -1.00601,-1.03475 -1.00601,-2.61561 v 0 -30.4675004 q 0,-1.580861 1.00601,-2.629978 1.006,-1.034745 2.58686,-1.034745 v 0 q 1.509,0 2.55812,1.034745 1.03474,1.049117 1.03474,2.629978 v 0 4.024009 l -1.29343,0.718573 q 0.503,-1.580861 1.76769,-3.204836 1.25032,-1.609603 3.04675,-3.018007 1.79643,-1.394031 4.02401,-2.227576 2.22758,-0.819173 4.74258,-0.819173 z m 22.41948,1.293431 v 0 h 16.88647 q 1.43714,0 2.40003,0.962888 0.97726,0.977259 0.97726,2.414405 v 0 q 0,1.365289 -0.97726,2.299434 -0.96289,0.934145 -2.40003,0.934145 v 0 h -16.88647 q -1.43714,0 -2.40003,-0.977259 -0.97726,-0.962888 -0.97726,-2.328177 v 0 q 0,-1.437146 0.97726,-2.371291 0.96289,-0.934145 2.40003,-0.934145 z m 7.54502,-9.34145 v 0 q 1.58086,0 2.58686,1.034746 1.006,1.049116 1.006,2.629977 v 0 33.341796 q 0,1.29343 0.43115,2.08386 0.43114,0.79043 1.17846,1.07786 0.76169,0.28743 1.55212,0.28743 v 0 q 0.79043,0 1.39403,-0.28743 0.61797,-0.28743 1.48026,-0.28743 v 0 q 0.86229,0 1.58086,0.7904304 0.71857,0.79043 0.71857,2.15572 v 0 q 0,1.72458 -1.86829,2.80244 -1.86829,1.07786 -4.02401,1.07786 v 0 q -1.22157,0 -2.87429,-0.21558 -1.65272,-0.21557 -3.19046,-1.07786 -1.55212,-0.86228 -2.55812,-2.77369 -1.00601,-1.89703 -1.00601,-5.3461804 v 0 -33.629226 q 0,-1.580861 1.04912,-2.629977 1.03475,-1.034746 2.54375,-1.034746 z m 24.28777,46.7072594 v 0 q -1.58086,0 -2.58686,-1.04912 -1.00601,-1.03475 -1.00601,-2.61561 v 0 -30.4675004 q 0,-1.580861 1.00601,-2.629978 1.006,-1.034745 2.58686,-1.034745 v 0 q 1.509,0 2.54375,1.034745 1.04911,1.049117 1.04911,2.629978 v 0 8.048018 l -0.71857,-3.089864 q 0.57486,-2.012005 1.75332,-3.73658 1.19283,-1.724575 2.84555,-3.018007 1.65272,-1.293431 3.69346,-2.012004 2.05512,-0.718573 4.2827,-0.718573 v 0 q 1.86829,0 3.23358,1.006002 1.36529,1.006002 1.36529,2.515006 v 0 q 0,1.940147 -1.00601,2.831177 -1.006,0.905402 -2.22757,0.905402 v 0 q -1.07786,0 -2.08386,-0.474258 -1.00601,-0.459886 -2.37129,-0.459886 v 0 q -1.50901,0 -3.08987,0.79043 -1.58086,0.79043 -2.87429,2.328177 -1.29343,1.552117 -2.05512,3.635979 -0.74732,2.083862 -0.74732,4.670725 v 0 17.2457564 q 0,1.58086 -1.04911,2.61561 -1.03475,1.04912 -2.54375,1.04912 z m 60.77691,-18.8984804 v 0 q 0,5.74858 -2.54375,10.16062 -2.54375,4.4264204 -6.85519,6.9414204 -4.31144,2.51501 -9.70073,2.51501 v 0 q -5.33182,0 -9.672,-2.51501 -4.34018,-2.515 -6.8983,-6.9414204 -2.55812,-4.41204 -2.55812,-10.16062 v 0 q 0,-5.820443 2.55812,-10.246853 2.55812,-4.412039 6.8983,-6.970159 4.34018,-2.543748 9.672,-2.543748 v 0 q 5.38929,0 9.70073,2.543748 4.31144,2.55812 6.85519,6.970159 2.54375,4.42641 2.54375,10.246853 z m -7.18573,0 v 0 q 0,-3.952153 -1.58086,-6.86956 -1.58086,-2.903035 -4.26833,-4.598867 -2.70183,-1.681461 -6.06475,-1.681461 v 0 q -3.31981,0 -6.00727,1.681461 -2.70184,1.695832 -4.31144,4.598867 -1.62398,2.917407 -1.62398,6.86956 v 0 q 0,3.80844 1.62398,6.75459 1.6096,2.94615 4.31144,4.59887 2.68746,1.6527204 6.00727,1.6527204 v 0 q 3.36292,0 6.06475,-1.6527204 2.68747,-1.65272 4.26833,-4.59887 1.58086,-2.94615 1.58086,-6.75459 z m 22.70691,-30.611214 v 45.8449644 q 0,1.58086 -1.03475,2.61561 -1.04912,1.04912 -2.55812,1.04912 v 0 q -1.509,0 -2.54375,-1.04912 -1.04911,-1.03475 -1.04911,-2.61561 v 0 -45.8449644 q 0,-1.58086 1.07785,-2.615605 1.07786,-1.049117 2.58687,-1.049117 v 0 q 1.58086,0 2.55812,1.049117 0.96289,1.034745 0.96289,2.615605 z"
                                   opacity="1"
                                   fill="#ffffff"
                                   class="wordmark-text-0"
                                   data-fill-palette-color="primary"
                                   id="text-0"
                                   style="stroke-width:1.43715" />
                                </svg>
                                </g>
                                </svg>
                                </g>
                                <g
                                   transform="matrix(1,0,0,1,0,20.42561774901027)"
                                   id="g942">
                                <svg
                                   viewBox="0 0 244.43135999999998 8.262282314764736"
                                   height="8.262282314764736"
                                   width="244.43135999999998"
                                   version="1.1"
                                   id="svg940">
                                <g
                                   id="g938"
                                   transform="matrix(1,0,0,1,0,0)">
                                <svg
                                   width="244.43135999999998"
                                   viewBox="2.75 -37.2 1396.36 47.2"
                                   height="8.262282314764736"
                                   data-palette-color="#ffffff"
                                   version="1.1"
                                   id="svg936">
                                <path
                                   d="m -298.90922,30.161424 v 0 q -9.84445,0 -15.44932,-6.65399 -5.60487,-6.63962 -5.60487,-19.2865 v 0 q 0,-6.32344 1.43714,-11.13789 1.43715,-4.81444 4.16773,-8.11987 2.73058,-3.30543 6.65398,-5.00126 3.90904,-1.68146 8.79534,-1.68146 v 0 q 6.53901,0 10.96542,2.87429 4.41204,2.87429 6.92705,8.47915 v 0 l -6.82645,3.73658 q -1.29343,-3.59286 -3.98089,-5.71984 -2.70184,-2.1126 -7.08513,-2.1126 v 0 q -5.82044,0 -9.12588,3.95215 -3.30544,3.95215 -3.30544,10.92231001 v 0 7.61687999 q 0,6.97015 3.30544,10.92231 3.30544,3.95215 9.12588,3.95215 v 0 q 4.52701,0 7.37256,-2.34255 2.83118,-2.32818 4.19646,-5.9929 v 0 l 6.53902,3.95215 q -2.51501,5.46116 -7.04202,8.55102 -4.52701,3.08987 -11.06602,3.08987 z m 56.53733,0 v 0 q -3.8803,0 -7.08513,-1.36529 -3.19047,-1.36529 -5.41804,-3.92341 -2.22758,-2.54375 -3.44916,-6.17973 -1.22157,-3.62161 -1.22157,-8.07676 v 0 q 0,-4.45515 1.22157,-8.09113 1.22158,-3.62161 3.44916,-6.17973 2.22757,-2.54376 5.41804,-3.90905 3.20483,-1.36528 7.08513,-1.36528 v 0 q 3.88029,0 7.07076,1.36528 3.20483,1.36529 5.43241,3.90905 2.22757,2.55812 3.44915,6.17973 1.22157,3.63598 1.22157,8.09113 v 0 q 0,4.45515 -1.22157,8.07676 -1.22158,3.63598 -3.44915,6.17973 -2.22758,2.55812 -5.43241,3.92341 -3.19047,1.36529 -7.07076,1.36529 z m 0,-6.46716 v 0 q 4.02401,0 6.46715,-2.48626 2.44315,-2.4719 2.44315,-7.43005 v 0 -6.32344 q 0,-4.95815 -2.44315,-7.44441999 -2.44314,-2.47188001 -6.46715,-2.47188001 v 0 q -4.02401,0 -6.46716,2.47188001 -2.44315,2.48626999 -2.44315,7.44441999 v 0 6.32344 q 0,4.95815 2.44315,7.43005 2.44315,2.48626 6.46716,2.48626 z m 49.42345,5.60487 h -7.83245 v -37.36581 h 7.83245 v 6.17974 h 0.35928 q 1.22158,-3.01801 3.69347,-5.03002 2.48626,-2.012 6.7977,-2.012 v 0 q 5.74858,0 8.93905,3.76532 3.20483,3.7797 3.20483,10.74986 v 0 23.71291 h -7.83244 V 6.592224 q 0,-8.76659 -7.04202,-8.76659 v 0 q -1.509,0 -2.98926,0.38803 -1.46589,0.4024 -2.61561,1.19283001 -1.14971,0.79043 -1.83954,2.01200999 -0.67546,1.22157 -0.67546,2.87429 v 0 z m 57.39961,0 h -7.83244 v -37.36581 h 7.83244 v 6.17974 h 0.35929 q 1.22157,-3.01801 3.69346,-5.03002 2.48627,-2.012 6.79771,-2.012 v 0 q 5.74858,0 8.93904,3.76532 3.20484,3.7797 3.20484,10.74986 v 0 23.71291 h -7.83245 V 6.592224 q 0,-8.76659 -7.04201,-8.76659 v 0 q -1.50901,0 -2.98927,0.38803 -1.46588,0.4024 -2.6156,1.19283001 -1.14972,0.79043 -1.83955,2.01200999 -0.67546,1.22157 -0.67546,2.87429 v 0 z m 64.226065,0.86229 v 0 q -4.02401,0 -7.18573,-1.36529 -3.16172,-1.36529 -5.3893,-3.92341 -2.22757,-2.54375 -3.4204,-6.17973 -1.17846,-3.62161 -1.17846,-8.07676 v 0 q 0,-4.45515 1.17846,-8.09113 1.19283,-3.62161 3.4204,-6.17973 2.22758,-2.54376 5.3893,-3.90905 3.16172,-1.36528 7.18573,-1.36528 v 0 q 4.09587,0 7.21448,1.43714 3.13297,1.43715 5.21684,3.98091 2.08386,2.55812001 3.1186,5.93541 1.04912,3.37729 1.04912,7.25758 v 0 2.94615 h -25.65306 v 1.22158 q 0,4.31144 2.54375,7.07076 2.55812,2.77369 7.3007,2.77369 v 0 q 3.44915,0 5.82044,-1.509 2.3713,-1.50901 4.02401,-4.09587 v 0 l 4.59887,4.52701 q -2.08386,3.44915 -6.03601,5.4899 -3.95215,2.05512 -9.19774,2.05512 z m 0,-32.9825 v 0 q -2.012,0 -3.70783,0.71857 -1.68147,0.71857 -2.8743,2.01200001 -1.17846,1.29342999 -1.82517,3.08986999 -0.64672,1.79643 -0.64672,3.95215 v 0 0.503 h 17.38947 v -0.71858 q 0,-4.31143 -2.22758,-6.94140999 -2.22757,-2.61560001 -6.10787,-2.61560001 z m 55.45947,32.9825 v 0 q -4.02401,0 -7.18573,-1.36529 -3.16172,-1.36529 -5.31744,-3.92341 -2.15572,-2.54375 -3.30544,-6.17973 -1.14971,-3.62161 -1.14971,-8.07676 v 0 q 0,-4.45515 1.14971,-8.09113 1.14972,-3.62161 3.30544,-6.17973 2.15572,-2.54376 5.31744,-3.90905 3.16172,-1.36528 7.18573,-1.36528 v 0 q 5.60487,0 9.1977399,2.515 3.59286,2.51502 5.24558,6.68274001 v 0 l -6.46716,3.01800999 q -0.79043,-2.58686999 -2.7736899,-4.13897999 -1.96889,-1.53775001 -5.20247,-1.53775001 v 0 q -4.31144,0 -6.51027,2.68746001 -2.18446,2.70183999 -2.18446,7.01326999 v 0 6.68273 q 0,4.31144 2.18446,6.99891 2.19883,2.70183 6.51027,2.70183 v 0 q 3.44915,0 5.4899,-1.69583 2.0551199,-1.68146 3.2766899,-4.4839 v 0 l 5.96416,3.16172 q -1.86829,4.59887 -5.60487,7.04202 -3.7365799,2.44315 -9.1258799,2.44315 z m 55.10018,-0.86229 h -6.82644 q -4.09587,0 -6.17973,-2.12698 -2.08386,-2.1126 -2.08386,-5.9929 v 0 -22.85061 h -5.82044 v -6.39532 h 3.16172 q 1.94015,0 2.68746,-0.86228 0.76169,-0.86229 0.76169,-2.80244 v 0 -6.53901 h 7.04202 v 10.20373 h 7.83244 v 6.39532 h -7.83244 v 24.57519 h 7.25758 z m 39.14786,0.86229 v 0 q -4.02401,0 -7.18573,-1.36529 -3.16172,-1.36529 -5.3893,-3.92341 -2.22757,-2.54375 -3.4204,-6.17973 -1.17846,-3.62161 -1.17846,-8.07676 v 0 q 0,-4.45515 1.17846,-8.09113 1.19283,-3.62161 3.4204,-6.17973 2.22758,-2.54376 5.3893,-3.90905 3.16172,-1.36528 7.18573,-1.36528 v 0 q 4.09587,0 7.21448,1.43714 3.13298,1.43715 5.21684,3.98091 2.08386,2.55812001 3.1186,5.93541 1.04912,3.37729 1.04912,7.25758 v 0 2.94615 h -25.65306 v 1.22158 q 0,4.31144 2.54375,7.07076 2.55812,2.77369 7.3007,2.77369 v 0 q 3.44915,0 5.82045,-1.509 2.37129,-1.50901 4.024,-4.09587 v 0 l 4.59887,4.52701 q -2.08386,3.44915 -6.03601,5.4899 -3.95215,2.05512 -9.19774,2.05512 z m 0,-32.9825 v 0 q -2.012,0 -3.70783,0.71857 -1.68146,0.71857 -2.8743,2.01200001 -1.17846,1.29342999 -1.82517,3.08986999 -0.64672,1.79643 -0.64672,3.95215 v 0 0.503 h 17.38947 v -0.71858 q 0,-4.31143 -2.22758,-6.94140999 -2.22757,-2.61560001 -6.10787,-2.61560001 z m 64.513485,32.12021 v -6.17973 h -0.35928 q -1.22158,3.30544 -3.99527,5.17373 -2.75932,1.86829 -6.4959,1.86829 v 0 q -7.11387,0 -10.99417,-5.14499 -3.88029,-5.13061 -3.88029,-14.4002 v 0 q 0,-9.26959 3.88029,-14.41457 3.8803,-5.13062 10.99417,-5.13062 v 0 q 3.73658,0 6.4959,1.82517 2.77369,1.83955 3.99527,5.21685 v 0 h 0.35928 v -21.98833 h 7.83245 v 53.1744 z m -8.47916,-5.8923 v 0 q 3.59287,0 6.03601,-1.76769 2.44315,-1.75332 2.44315,-4.62761 v 0 -12.7906 q 0,-2.87429 -2.44315,-4.64197999 -2.44314,-1.75332001 -6.03601,-1.75332001 v 0 q -4.09587,0 -6.53901,2.61561001 -2.44315,2.62996999 -2.44315,6.94140999 v 0 6.46716 q 0,4.31144 2.44315,6.92704 2.44314,2.62998 6.53901,2.62998 z m 93.09833,5.8923 h -6.82645 q -4.09586,0 -6.17973,-2.12698 -2.08386,-2.1126 -2.08386,-5.9929 v 0 -22.85061 h -5.82044 v -6.39532 h 3.16172 q 1.94015,0 2.68746,-0.86228 0.76169,-0.86229 0.76169,-2.80244 v 0 -6.53901 h 7.04202 v 10.20373 h 7.83244 v 6.39532 h -7.83244 v 24.57519 h 7.25759 z m 39.14786,0.86229 v 0 q -3.8803,0 -7.08513,-1.36529 -3.19047,-1.36529 -5.41805,-3.92341 -2.22757,-2.54375 -3.44915,-6.17973 -1.22157,-3.62161 -1.22157,-8.07676 v 0 q 0,-4.45515 1.22157,-8.09113 1.22158,-3.62161 3.44915,-6.17973 2.22758,-2.54376 5.41805,-3.90905 3.20483,-1.36528 7.08513,-1.36528 v 0 q 3.88029,0 7.07075,1.36528 3.20484,1.36529 5.43242,3.90905 2.22757,2.55812 3.44915,6.17973 1.22157,3.63598 1.22157,8.09113 v 0 q 0,4.45515 -1.22157,8.07676 -1.22158,3.63598 -3.44915,6.17973 -2.22758,2.55812 -5.43242,3.92341 -3.19046,1.36529 -7.07075,1.36529 z m 0,-6.46716 v 0 q 4.024,0 6.46715,-2.48626 2.44315,-2.4719 2.44315,-7.43005 v 0 -6.32344 q 0,-4.95815 -2.44315,-7.44441999 -2.44315,-2.47188001 -6.46715,-2.47188001 v 0 q -4.02401,0 -6.46716,2.47188001 -2.44315,2.48626999 -2.44315,7.44441999 v 0 6.32344 q 0,4.95815 2.44315,7.43005 2.44315,2.48626 6.46716,2.48626 z m 94.8229,5.60487 h -8.11988 V 9.538374 l -17.24575,-30.39564 h 9.26959 l 12.21574,22.34762 h 0.21557 l 12.14389,-22.34762 h 8.9103 l -17.38946,30.25192 z m 50.28574,0.86229 v 0 q -3.8803,0 -7.08513,-1.36529 -3.19047,-1.36529 -5.41804,-3.92341 -2.22758,-2.54375 -3.44915,-6.17973 Q 394.6,15.071384 394.6,10.616234 v 0 q 0,-4.45515 1.22158,-8.09113 1.22157,-3.62161 3.44915,-6.17973 2.22757,-2.54376 5.41804,-3.90905 3.20483,-1.36528 7.08513,-1.36528 v 0 q 3.88029,0 7.07076,1.36528 3.20483,1.36529 5.43241,3.90905 2.22758,2.55812 3.44915,6.17973 1.22157,3.63598 1.22157,8.09113 v 0 q 0,4.45515 -1.22157,8.07676 -1.22157,3.63598 -3.44915,6.17973 -2.22758,2.55812 -5.43241,3.92341 -3.19047,1.36529 -7.07076,1.36529 z m 0,-6.46716 v 0 q 4.02401,0 6.46716,-2.48626 2.44314,-2.4719 2.44314,-7.43005 v 0 -6.32344 q 0,-4.95815 -2.44314,-7.44441999 Q 415.79791,-2.461786 411.7739,-2.461786 v 0 q -4.02401,0 -6.46716,2.47188001 -2.44315,2.48626999 -2.44315,7.44441999 v 0 6.32344 q 0,4.95815 2.44315,7.43005 2.44315,2.48626 6.46716,2.48626 z m 64.22606,5.60487 v -6.17973 h -0.28743 q -0.503,1.36529 -1.33655,2.65872 -0.81917,1.29343 -2.08386,2.25632 -1.25032,0.97726 -3.01801,1.55212 -1.75331,0.57486 -4.05275,0.57486 v 0 q -5.82044,0 -9.02527,-3.73658 -3.19047,-3.73658 -3.19047,-10.70674 v 0 -23.78478 h 7.83245 v 22.77878 q 0,8.69473 7.18573,8.69473 v 0 q 1.509,0 2.94615,-0.4024 1.43714,-0.38803 2.54375,-1.17846 1.12097,-0.79043 1.79643,-2.012 0.68983,-1.22158 0.68983,-2.8743 v 0 -25.00635 h 7.83245 v 37.36581 z m 42.59701,0 h -7.83245 v -37.36581 h 7.83245 v 7.18575001 h 0.35929 q 0.79043,-2.87430001 3.30543,-5.03003001 2.51501,-2.15572 6.97016,-2.15572 v 0 h 2.08386 v 7.54503001 h -3.08986 q -4.67073,0 -7.15699,1.509 -2.47189,1.50900999 -2.47189,4.45514999 v 0 z m 99.49363,0 V 7.454514 h -22.70691 v 21.84462 h -8.11988 v -50.1564 h 8.11988 V 0.26878401 H 618.0906 V -20.857266 h 8.11987 v 50.1564 z m 50.28574,0.86229 v 0 q -3.8803,0 -7.08513,-1.36529 -3.19047,-1.36529 -5.41804,-3.92341 -2.22758,-2.54375 -3.44915,-6.17973 -1.22158,-3.62161 -1.22158,-8.07676 v 0 q 0,-4.45515 1.22158,-8.09113 1.22157,-3.62161 3.44915,-6.17973 2.22757,-2.54376 5.41804,-3.90905 3.20483,-1.36528 7.08513,-1.36528 v 0 q 3.88029,0 7.07076,1.36528 3.20479,1.36529 5.43239,3.90905 2.2276,2.55812 3.4492,6.17973 1.2215,3.63598 1.2215,8.09113 v 0 q 0,4.45515 -1.2215,8.07676 -1.2216,3.63598 -3.4492,6.17973 -2.2276,2.55812 -5.43239,3.92341 -3.19047,1.36529 -7.07076,1.36529 z m 0,-6.46716 v 0 q 4.02401,0 6.46716,-2.48626 2.44319,-2.4719 2.44319,-7.43005 v 0 -6.32344 q 0,-4.95815 -2.44319,-7.44441999 -2.44315,-2.47188001 -6.46716,-2.47188001 v 0 q -4.02401,0 -6.46716,2.47188001 -2.44315,2.48626999 -2.44315,7.44441999 v 0 6.32344 q 0,4.95815 2.44315,7.43005 2.44315,2.48626 6.46716,2.48626 z m 49.42345,5.60487 h -7.8324 v -37.36581 h 7.8324 v 6.17974 h 0.3593 q 0.5748,-1.43714 1.394,-2.73059 0.8336,-1.29343 2.012,-2.27069 1.1929,-0.96288 2.8025,-1.509 1.6239,-0.53174 3.7797,-0.53174 v 0 q 3.8084,0 6.7545,1.86829 2.9462,1.86829 4.3115,5.74859 v 0 h 0.2156 q 1.006,-3.16173 3.8802,-5.38931 2.8743,-2.22757 7.4013,-2.22757 v 0 q 5.6049,0 8.6948,3.76532 3.0898,3.7797 3.0898,10.74986 v 0 23.71291 h -7.8324 V 6.520364 q 0,-4.31143 -1.6527,-6.51026999 -1.6527,-2.18446001 -5.2456,-2.18446001 v 0 q -1.509,0 -2.8743,0.38803 -1.3653,0.4024 -2.4144,1.19283001 -1.0347,0.79043 -1.6815,2.01200999 -0.6467,1.22157 -0.6467,2.80243 v 0 25.0782 h -7.8324 V 6.520364 q 0,-8.69473 -6.8265,-8.69473 v 0 q -1.4371,0 -2.8455,0.38803 -1.394,0.4024 -2.4719,1.19283001 -1.0779,0.79043 -1.7246,2.01200999 -0.6467,1.22157 -0.6467,2.80243 v 0 z m 85.927,0.86229 v 0 q -4.024,0 -7.1858,-1.36529 -3.1617,-1.36529 -5.3893,-3.92341 -2.2275,-2.54375 -3.4204,-6.17973 -1.1784,-3.62161 -1.1784,-8.07676 v 0 q 0,-4.45515 1.1784,-8.09113 1.1929,-3.62161 3.4204,-6.17973 2.2276,-2.54376 5.3893,-3.90905 3.1618,-1.36528 7.1858,-1.36528 v 0 q 4.0958,0 7.2144,1.43714 3.133,1.43715 5.2169,3.98091 2.0838,2.55812001 3.1186,5.93541 1.0491,3.37729 1.0491,7.25758 v 0 2.94615 h -25.6531 v 1.22158 q 0,4.31144 2.5438,7.07076 2.5581,2.77369 7.3007,2.77369 v 0 q 3.4491,0 5.8204,-1.509 2.3713,-1.50901 4.0241,-4.09587 v 0 l 4.5988,4.52701 q -2.0838,3.44915 -6.036,5.4899 -3.9521,2.05512 -9.1977,2.05512 z m 0,-32.9825 v 0 q -2.012,0 -3.7079,0.71857 -1.6814,0.71857 -2.8743,2.01200001 -1.1784,1.29342999 -1.8251,3.08986999 -0.6468,1.79643 -0.6468,3.95215 v 0 0.503 h 17.3895 v -0.71858 q 0,-4.31143 -2.2276,-6.94140999 -2.2275,-2.61560001 -6.1078,-2.61560001 z m 44.5371,22.13204 v 0 q 2.6587,0 3.9522,1.36529 1.2934,1.36529 1.2934,3.52101 v 0 1.14972 q 0,3.52101 -1.9114,7.37256 -1.897,3.83718 -5.1306,6.4959 v 0 h -5.8204 q 2.2994,-2.29943 3.8084,-4.45515 1.509,-2.15572 2.2994,-4.81444 v 0 q -1.8683,-0.35929 -2.8024,-1.62398 -0.9342,-1.25032 -0.9342,-2.97489 v 0 -1.14972 q 0,-2.15572 1.2935,-3.52101 1.2934,-1.36529 3.9521,-1.36529 z m 104.8111,9.98817 h -8.4792 l -4.527,-13.58103 h -18.7547 l -4.3833,13.58103 h -8.2636 l 17.102,-50.1564 h 10.2038 z m -15.0182,-20.55119 -7.1857,-22.13205 h -0.3593 l -7.2576,22.13205 z m 45.7587,20.55119 h -7.8324 v -37.36581 h 7.8324 v 6.17974 h 0.3593 q 1.2216,-3.01801 3.6935,-5.03002 2.4863,-2.012 6.7977,-2.012 v 0 q 5.74861,0 8.93911,3.76532 3.2048,3.7797 3.2048,10.74986 v 0 23.71291 h -7.83251 V 6.592224 q 0,-8.76659 -7.042,-8.76659 v 0 q -1.509,0 -2.9892,0.38803 -1.4659,0.4024 -2.6156,1.19283001 -1.1498,0.79043 -1.8396,2.01200999 -0.6755,1.22157 -0.6755,2.87429 v 0 z m 64.44171,-15.37747 7.4731,-21.98834 h 7.5451 l -15.7368,44.76711 q -0.6467,1.86829 -1.4803,3.20484 -0.8191,1.32217 -1.9401,2.15572 -1.1066,0.81917 -2.6875,1.22157 -1.5808,0.38803 -3.7365,0.38803 v 0 h -4.5271 v -6.3953 h 6.3235 l 2.1557,-6.32344 -13.581,-39.01853 h 7.8324 l 7.4732,21.98834 2.1557,8.11988 h 0.3593 z m 43.6749,15.37747 -10.2038,-37.36581 h 7.6169 l 3.8084,15.6649 3.3773,14.15589 h 0.2156 l 3.8803,-14.15589 4.527,-15.6649 h 7.042 l 4.5989,15.6649 3.9521,14.15589 h 0.2156 l 3.3054,-14.15589 3.8803,-15.6649 h 7.2576 l -10.06,37.36581 h -8.8385 l -4.8862,-17.03018 -3.0181,-10.49117 h -0.1437 l -2.9461,10.49117 -4.9582,17.03018 z m 66.6692,0 v -53.1744 h 7.8324 v 21.98833 h 0.3593 q 1.2216,-3.01801 3.6935,-5.03002 2.4862,-2.012 6.7977,-2.012 v 0 q 5.7485,0 8.939,3.76532 3.2048,3.7797 3.2048,10.74986 v 0 23.71291 h -7.8324 V 6.520364 q 0,-8.69473 -7.042,-8.69473 v 0 q -1.509,0 -2.9893,0.38803 -1.4659,0.4024 -2.6156,1.19283001 -1.1497,0.79043 -1.8395,2.01200999 -0.6755,1.22157 -0.6755,2.80243 v 0 25.0782 z m 72.0585,0.86229 v 0 q -4.024,0 -7.1858,-1.36529 -3.1617,-1.36529 -5.3893,-3.92341 -2.2275,-2.54375 -3.4204,-6.17973 -1.1784,-3.62161 -1.1784,-8.07676 v 0 q 0,-4.45515 1.1784,-8.09113 1.1929,-3.62161 3.4204,-6.17973 2.2276,-2.54376 5.3893,-3.90905 3.1618,-1.36528 7.1858,-1.36528 v 0 q 4.0958,0 7.2144,1.43714 3.133,1.43715 5.2169,3.98091 2.0838,2.55812001 3.1186,5.93541 1.0491,3.37729 1.0491,7.25758 v 0 2.94615 h -25.6531 v 1.22158 q 0,4.31144 2.5438,7.07076 2.5581,2.77369 7.3007,2.77369 v 0 q 3.4491,0 5.8204,-1.509 2.3713,-1.50901 4.024,-4.09587 v 0 l 4.5989,4.52701 q -2.0838,3.44915 -6.036,5.4899 -3.9522,2.05512 -9.1977,2.05512 z m 0,-32.9825 v 0 q -2.012,0 -3.7079,0.71857 -1.6814,0.71857 -2.8743,2.01200001 -1.1784,1.29342999 -1.8251,3.08986999 -0.6468,1.79643 -0.6468,3.95215 v 0 0.503 h 17.3895 v -0.71858 q 0,-4.31143 -2.2276,-6.94140999 -2.2275,-2.61560001 -6.1078,-2.61560001 z m 48.8486,32.12021 h -7.8325 v -37.36581 h 7.8325 v 7.18575001 h 0.3592 q 0.7905,-2.87430001 3.3055,-5.03003001 2.515,-2.15572 6.9701,-2.15572 v 0 h 2.0839 v 7.54503001 h -3.0899 q -4.6707,0 -7.1569,1.509 -2.4719,1.50900999 -2.4719,4.45514999 v 0 z m 49.7108,0.86229 v 0 q -4.024,0 -7.1857,-1.36529 -3.1617,-1.36529 -5.3893,-3.92341 -2.2276,-2.54375 -3.4204,-6.17973 -1.1785,-3.62161 -1.1785,-8.07676 v 0 q 0,-4.45515 1.1785,-8.09113 1.1928,-3.62161 3.4204,-6.17973 2.2276,-2.54376 5.3893,-3.90905 3.1617,-1.36528 7.1857,-1.36528 v 0 q 4.0959,0 7.2145,1.43714 3.133,1.43715 5.2169,3.98091 2.0838,2.55812001 3.1186,5.93541 1.0491,3.37729 1.0491,7.25758 v 0 2.94615 h -25.6531 v 1.22158 q 0,4.31144 2.5438,7.07076 2.5581,2.77369 7.3007,2.77369 v 0 q 3.4491,0 5.8204,-1.509 2.3713,-1.50901 4.024,-4.09587 v 0 l 4.5989,4.52701 q -2.0839,3.44915 -6.036,5.4899 -3.9522,2.05512 -9.1978,2.05512 z m 0,-32.9825 v 0 q -2.012,0 -3.7078,0.71857 -1.6815,0.71857 -2.8743,2.01200001 -1.1784,1.29342999 -1.8252,3.08986999 -0.6467,1.79643 -0.6467,3.95215 v 0 0.503 h 17.3895 v -0.71858 q 0,-4.31143 -2.2276,-6.94140999 -2.2276,-2.61560001 -6.1079,-2.61560001 z m 93.6732,32.9825 v 0 q -4.8863,0 -8.8815,-1.69583 -3.9809,-1.68147 -6.8265,-4.95816 -2.8312,-3.26232 -4.3833,-8.11988 -1.5377,-4.84318 -1.5377,-11.16662 v 0 q 0,-6.32344 1.5377,-11.181 1.5521,-4.84318 4.3833,-8.11987 2.8456,-3.26232 6.8265,-4.95815 3.9952,-1.68146 8.8815,-1.68146 v 0 q 4.8863,0 8.8672,1.68146 3.9953,1.69583 6.8265,4.95815 2.8455,3.27669 4.3833,8.11987 1.5521,4.85756 1.5521,11.181 v 0 q 0,6.32344 -1.5521,11.16662 -1.5378,4.85756 -4.3833,8.11988 -2.8312,3.27669 -6.8265,4.95816 -3.9809,1.69583 -8.8672,1.69583 z m 0,-7.25759 v 0 q 2.8743,0 5.2744,-1.006 2.4144,-1.006 4.0958,-2.91741 1.6959,-1.89703 2.63,-4.62761 0.9341,-2.73058 0.9341,-6.17973 v 0 -7.90429999 q 0,-3.44915001 -0.9341,-6.17974001 -0.9341,-2.73057 -2.63,-4.64198 -1.6814,-1.89703 -4.0958,-2.90303 -2.4001,-1.006 -5.2744,-1.006 v 0 q -2.9461,0 -5.3174,1.006 -2.3713,1.006 -4.0671,2.90303 -1.6815,1.91141 -2.6156,4.64198 -0.9342,2.73059 -0.9342,6.17974001 v 0 7.90429999 q 0,3.44915 0.9342,6.17973 0.9341,2.73058 2.6156,4.62761 1.6958,1.91141 4.0671,2.91741 2.3713,1.006 5.3174,1.006 z m 54.7409,6.3953 h -7.8324 v -37.36581 h 7.8324 v 6.17974 h 0.3593 q 1.2216,-3.01801 3.6935,-5.03002 2.4862,-2.012 6.7977,-2.012 v 0 q 5.7486,0 8.939,3.76532 3.2049,3.7797 3.2049,10.74986 v 0 23.71291 h -7.8325 V 6.592224 q 0,-8.76659 -7.042,-8.76659 v 0 q -1.509,0 -2.9893,0.38803 -1.4659,0.4024 -2.6156,1.19283001 -1.1497,0.79043 -1.8395,2.01200999 -0.6755,1.22157 -0.6755,2.87429 v 0 z m 62.5734,0 h -5.03 q -4.0241,0 -6.0073,-2.05512 -1.9689,-2.04075 -1.9689,-5.70547 v 0 -45.41381 h 7.8324 v 46.7791 h 5.1738 z m 27.1477,-44.04853 v 0 q -2.4432,0 -3.5642,-1.14972 -1.1066,-1.14971 -1.1066,-2.94614 v 0 -1.22158 q 0,-1.79643 1.1066,-2.94614 1.121,-1.14972 3.5642,-1.14972 v 0 q 2.4431,0 3.521,1.14972 1.0778,1.14971 1.0778,2.94614 v 0 1.22158 q 0,1.79643 -1.0778,2.94614 -1.0779,1.14972 -3.521,1.14972 z m -3.9522,44.04853 v -37.36581 h 7.8325 v 37.36581 z m 42.5826,0 h -7.8324 v -37.36581 h 7.8324 v 6.17974 h 0.3593 q 1.2216,-3.01801 3.7079,-5.03002 2.4719,-2.012 6.7833,-2.012 v 0 q 5.7486,0 8.9534,3.76532 3.1905,3.7797 3.1905,10.74986 v 0 23.71291 h -7.8325 V 6.592224 q 0,-8.76659 -7.042,-8.76659 v 0 q -1.509,0 -2.9749,0.38803 -1.4802,0.4024 -2.6299,1.19283001 -1.1498,0.79043 -1.8252,2.01200999 -0.6899,1.22157 -0.6899,2.87429 v 0 z m 64.2261,0.86229 v 0 q -4.024,0 -7.1857,-1.36529 -3.1617,-1.36529 -5.3893,-3.92341 -2.2276,-2.54375 -3.4061,-6.17973 -1.1928,-3.62161 -1.1928,-8.07676 v 0 q 0,-4.45515 1.1928,-8.09113 1.1785,-3.62161 3.4061,-6.17973 2.2276,-2.54376 5.3893,-3.90905 3.1617,-1.36528 7.1857,-1.36528 v 0 q 4.0959,0 7.2288,1.43714 3.1187,1.43715 5.2025,3.98091 2.0839,2.55812001 3.133,5.93541 1.0347,3.37729 1.0347,7.25758 v 0 2.94615 h -25.653 v 1.22158 q 0,4.31144 2.5581,7.07076 2.5438,2.77369 7.2863,2.77369 v 0 q 3.4492,0 5.8205,-1.509 2.3713,-1.50901 4.024,-4.09587 v 0 l 4.5989,4.52701 q -2.0839,3.44915 -6.0361,5.4899 -3.9521,2.05512 -9.1977,2.05512 z m 0,-32.9825 v 0 q -2.012,0 -3.6935,0.71857 -1.6958,0.71857 -2.8743,2.01200001 -1.1928,1.29342999 -1.8395,3.08986999 -0.6467,1.79643 -0.6467,3.95215 v 0 0.503 h 17.3895 v -0.71858 q 0,-4.31143 -2.2276,-6.94140999 -2.2276,-2.61560001 -6.1079,-2.61560001 z"
                                   opacity="1"
                                   fill="#ffffff"
                                   class="slogan-text-1"
                                   data-fill-palette-color="secondary"
                                   id="text-1"
                                   style="stroke-width:1.43715" />
                                </svg>
                                </g>
                                </svg>
                                </g>
                                </svg>
                                </g>
                              </svg>
                            </g>
                            <g
                               transform="matrix(1,0,0,1,92.0729292824082,0)"
                               id="g971">
                              <svg
                                 viewBox="0 0 61.50765823518355 47.17954668688311"
                                 height="47.17954668688311"
                                 width="61.50765823518355"
                                 version="1.1"
                                 id="svg969">
                                <g
                                   id="g967">
                                <svg
                                   version="1.1"
                                   x="8"
                                   y="0"
                                   viewBox="6.488748800000001 4.5 85.94315477177858 89.10058746635909"
                                   enable-background="new 0 0 100 100"
                                   xml:space="preserve"
                                   height="47.17954668688311"
                                   width="45.50765823518355"
                                   class="icon-icon-0"
                                   data-fill-palette-color="accent"
                                   id="icon-0"><polygon
                                   points="29.1,22.9 13.8,29 29.1,35.2 32.2,32.1 24,29 32.2,26 "
                                   fill="#41fffc"
                                   data-fill-palette-color="accent"
                                   id="polygon950"
                                   transform="matrix(1.4371461,0,0,1.4371461,-27.408879,-73.268661)" /><polygon
                                   points="38.1,11.1 23,4.5 29.5,19.6 33.8,19.6 30.3,11.8 38.1,15.4 "
                                   fill="#41fffc"
                                   data-fill-palette-color="accent"
                                   id="polygon952"
                                   transform="matrix(1.4371461,0,0,1.4371461,-27.408879,-73.268661)" /><polygon
                                   points="29.5,38.4 23,53.5 38.1,47 38.1,42.7 30.3,46.3 33.8,38.4 "
                                   fill="#41fffc"
                                   data-fill-palette-color="accent"
                                   id="polygon954"
                                   transform="matrix(1.4371461,0,0,1.4371461,-27.408879,-73.268661)" /><polygon
                                   points="69.8,35.2 85.1,29 69.8,22.9 66.7,26 74.9,29 66.7,32.1 "
                                   fill="#41fffc"
                                   data-fill-palette-color="accent"
                                   id="polygon956"
                                   transform="matrix(1.4371461,0,0,1.4371461,-27.408879,-73.268661)" /><polygon
                                   points="60.8,47 75.9,53.5 69.4,38.4 65.1,38.4 68.7,46.3 60.8,42.7 "
                                   fill="#41fffc"
                                   data-fill-palette-color="accent"
                                   id="polygon958"
                                   transform="matrix(1.4371461,0,0,1.4371461,-27.408879,-73.268661)" /><polygon
                                   points="69.4,19.6 75.9,4.5 60.8,11.1 60.8,15.4 68.7,11.8 65.1,19.6 "
                                   fill="#41fffc"
                                   data-fill-palette-color="accent"
                                   id="polygon960"
                                   transform="matrix(1.4371461,0,0,1.4371461,-27.408879,-73.268661)" /><path
                                   d="m 34.532116,-40.358014 9.48517,-5.461154 c 1.72457,-1.006002 2.29943,-3.161721 1.29343,-5.03001 -1.006,-1.724575 -3.16172,-2.299434 -5.03001,-1.293432 l -9.48517,5.461155 c -1.72457,1.006002 -2.29943,3.16172 -1.29343,5.03001 1.006,1.868289 3.30544,2.299433 5.03001,1.293431 z m -5.03001,11.64088 c 1.006,1.724575 3.16172,2.299434 5.03001,1.293432 L 56.664166,-40.2143 c 1.72458,-1.006001 2.29944,-3.16172 1.29343,-5.03001 -1.006,-1.724575 -3.16172,-2.299433 -5.03001,-1.293431 l -22.13205,12.790597 c -1.58086,1.006002 -2.15572,3.161721 -1.29343,5.03001 z m 28.45549,8.766591 c -1.006,-1.724576 -3.16172,-2.299434 -5.03001,-1.293432 l -4.45515,2.443148 v 10.0600232 c 0,0 -5.03001,0 -6.32344,0 v -2.2994342 0 -0.143714 0 c 0,-0.143715 0,-0.287429 0,-0.574859 v 0 c 0,-0.287429 -0.14372,-0.574858 -0.28743,-0.862287 l -2.73058,-5.030012 17.38947,-10.060022 c 1.72457,-1.006002 2.29943,-3.16172 1.29343,-5.03001 -1.006,-1.724575 -3.16172,-2.299433 -5.03001,-1.293431 l -22.13205,12.790598 c -1.72458,1.006002 -2.29944,3.161721 -1.29343,5.030011 0.86228,1.580861 2.87429,2.15572 4.74258,1.437147 v 0 l 2.29943,4.311438 V 5.7743722 c 0,2.29943 1.72458,4.3114398 4.02401,4.5988698 1.006,1.43714 2.87429,2.44315 5.17373,2.44315 2.15572,0 4.02401,-1.00601 5.17372,-2.44315 2.15572,-0.28743 4.16773,-2.1557198 4.16773,-4.5988698 V -13.91453 l 1.72457,-1.006002 c 1.72458,-1.149717 2.29944,-3.305436 1.29343,-5.030011 z m -6.75458,26.4434852 h -10.92231 v -2.87429 h 10.92231 z m 0,-4.45515 h -10.92231 v -2.87429002 h 10.92231 z m 0,-4.45515 h -10.92231 v -2.874295 h 10.92231 z"
                                   fill="#41fffc"
                                   data-fill-palette-color="accent"
                                   id="path962"
                                   style="stroke-width:1.43715" /><path
                                   d="m -10.30684,15.259532 c 3.018007,-6.8982998 9.91630601,-4.59886 9.91630601,-4.59886 0,0 48.14439999,14.37146 52.31211999,16.23975 2.44315,1.14971 4.16772,3.73658 4.16772,6.32344 0,2.87429 -0.86228,4.59887 -3.018,6.17973 -2.29944,1.58086 -4.59887,1.86829 -7.76059,0.86229 -1.29343,-0.43115 -8.91031,-2.8743 -16.81461,-5.31744 -11.7846,-3.73658 -14.65889,-4.45516 -15.37746,-4.02401 -1.29344,0.71857 -1.58087,1.72457 -1.00601,2.87429 0.28743,0.57486 7.04202,2.87429 17.96433,6.46716 19.6889,6.32344 20.40747,6.46715 25.00634,3.73658 4.59887,-2.73058 6.75459,-7.76059 5.46116,-12.93432 -0.57486,-2.44315 -0.57486,-2.58686 0.43114,-3.01801 0.57486,-0.28742 8.91031,-3.73658 18.39547,-7.76058 18.97033,-8.19174 19.25776,-8.19174 22.419484,-6.32345 3.30544,1.86829 4.59887,7.47316 2.87429,9.7726 -1.006,1.29343 -31.617214,19.40147 -31.617214,19.40147 0,0 -27.73692,18.25175 -32.76693,18.10804 -4.74259,0 -52.88698,-19.25776 -52.88698,-19.25776 0,0 -7.616874,-2.58686 -4.886297,-9.48516 2.586863,-6.32345 4.455153,-10.92231 7.185731,-17.24576 z"
                                   fill="#41fffc"
                                   data-fill-palette-color="accent"
                                   id="path964"
                                   style="stroke-width:1.43715" /></svg>
                                </g>
                              </svg>
                            </g>
                            <g
                               id="g977">
                              <rect
                                 width="64.348877"
                                 height="2.1416385"
                                 y="26.470291"
                                 x="163.95998"
                                 fill="#ffffff"
                                 data-fill-palette-color="secondary"
                                 id="rect973"
                                 style="stroke-width:1.43715" />
                              <rect
                                 width="64.348877"
                                 height="2.1416385"
                                 y="26.470291"
                                 x="11.215607"
                                 fill="#ffffff"
                                 data-fill-palette-color="secondary"
                                 id="rect975"
                                 style="stroke-width:1.43715" />
                            </g>
                          </svg>
                        </g>
                      </svg>
                    </g>
                    <path
                       d="M -56.475391,54.210856 V -52.471374 H 294.80767 v 106.68223 h -2.12985 V -50.340086 H -54.344104 V 54.210856 h -2.131287 m 0,139.023774 V 299.91686 H 294.80767 V 193.23463 h -2.12985 V 297.78557 H -54.344104 V 193.23463 h -2.131287"
                       fill="#ffffff"
                       stroke="transparent"
                       data-fill-palette-color="primary"
                       id="path987"
                       style="stroke-width:1.43715" />
                  </svg>
                </g>
                <defs
                   id="defs993" />
              </svg>
              <rect
                 width="244.43135999999998"
                 height="247.2"
                 fill="none"
                 stroke="none"
                 visibility="hidden"
                 id="rect997" />
            </g>
          </svg>
        </g>
      </g>
    </g>
  </g>
</svg>
