<?xml version="1.0" encoding="UTF-8" standalone="no"?>
<!DOCTYPE svg PUBLIC "-//W3C//DTD SVG 1.1//EN" "http://www.w3.org/Graphics/SVG/1.1/DTD/svg11.dtd">
<svg xmlns="http://www.w3.org/2000/svg" version="1.1" viewBox="0.00 0.00 500.00 500.00">
<path fill="#ffffff" d="
  M 500.00 203.84
  L 500.00 206.56
  Q 498.79 213.08 494.92 216.17
  Q 434.38 264.33 366.38 318.39
  Q 341.76 337.97 316.92 357.25
  Q 308.88 363.49 306.13 364.21
  C 296.72 366.68 287.15 359.98 287.14 349.99
  C 287.12 331.81 287.23 314.41 287.06 296.67
  Q 286.99 288.36 287.30 279.51
  A 2.26 2.26 0.0 0 0 285.28 277.19
  Q 268.29 275.41 250.99 275.66
  C 220.30 276.12 189.50 283.92 161.45 296.63
  Q 124.03 313.59 93.97 344.10
  Q 82.10 356.14 69.76 373.00
  C 54.96 393.20 44.95 417.09 37.75 442.35
  C 35.30 450.95 26.88 456.90 18.14 453.87
  Q 9.83 450.99 7.67 441.00
  Q 4.05 424.30 2.52 408.94
  C 1.17 395.47 1.39 380.69 1.13 366.76
  Q 0.93 356.63 3.25 341.77
  Q 12.22 284.36 43.69 239.74
  Q 55.40 223.13 73.35 205.23
  Q 80.48 198.13 88.19 191.83
  Q 123.23 163.21 163.04 147.34
  Q 191.28 136.07 223.95 129.42
  Q 234.51 127.27 243.72 126.21
  C 257.86 124.59 271.95 123.01 286.08 123.17
  A 0.92 0.91 0.0 0 0 287.01 122.25
  Q 286.89 89.94 287.03 60.97
  Q 287.06 54.71 290.95 50.57
  Q 298.17 42.89 307.39 46.41
  C 310.66 47.65 313.90 50.62 316.82 52.93
  Q 405.67 123.32 494.51 193.73
  Q 498.81 197.14 500.00 203.84
  Z"
/>
</svg>
